<?xml version="1.0" encoding="utf-8"?>
<!-- Generator: Adobe Illustrator 22.1.0, SVG Export Plug-In . SVG Version: 6.00 Build 0)  -->
<svg version="1.1" id="Capa_1" xmlns="http://www.w3.org/2000/svg" xmlns:xlink="http://www.w3.org/1999/xlink" x="0px" y="0px"
	 viewBox="0 0 350 350" style="enable-background:new 0 0 350 350;" xml:space="preserve">
<style type="text/css">
	.st0{fill:#838383;}
	.st1{fill:#F3D592;}
	.st2{fill:#F0C871;}
	.st3{fill:#EBBA52;}
	.st4{fill:#4B6EA7;}
	.st5{fill:#B9D7FE;}
	.st6{fill:#FFFFFF;}
	.st7{fill:#E3EAFF;}
	.st8{fill:#2F4C90;}
	.st9{fill:none;}
</style>
<g>
	
		<ellipse transform="matrix(0.7071 -0.7071 0.7071 0.7071 -74.8632 178.3848)" class="st0" cx="177.9" cy="179.6" rx="170.1" ry="170.1"/>
	
		<ellipse transform="matrix(0.7071 -0.7071 0.7071 0.7071 -70.1116 171.6152)" class="st1" cx="172.1" cy="170.4" rx="170.1" ry="170.1"/>
	<ellipse class="st2" cx="191.3" cy="272.6" rx="86.2" ry="33.7"/>
	<ellipse class="st3" cx="186.1" cy="260.8" rx="69.2" ry="27.3"/>
	<path class="st4" d="M209.5,279h-58.4c-22.7,0-41.3-18.6-41.3-41.3V121.9c0-31.2,25.5-56.7,56.7-56.7h27.7
		c31.2,0,56.7,25.5,56.7,56.7v115.7C250.8,260.4,232.2,279,209.5,279z"/>
	<path class="st5" d="M74.4,275.1l-5.3-4.1c12.4-16.1,17.6-38.5,15.4-66.5c-0.9-11.1-2.7-22.3-4.5-33.2c-2-12.5-4.1-25.3-4.8-38.2
		c-1.6-29.3,5.4-53.6,20.1-70.3C108,48.5,127.5,39.2,147.4,38c12.8-0.7,24.9,1.8,34.9,7.2c11.1,6.1,19.3,15.8,22.3,26.6l-6.4,1.8
		c-2.6-9.1-9.5-17.4-19.1-22.6c-8.8-4.8-19.9-7.1-31.3-6.4c-18.2,1-35.9,9.5-47.5,22.6c-17.1,19.4-19.5,46.3-18.4,65.5
		c0.7,12.5,2.7,25.2,4.7,37.5c1.8,11,3.6,22.4,4.5,33.8C93.5,233.7,87.8,257.6,74.4,275.1z"/>
	<g>
		<path class="st4" d="M66.2,269.3c-0.1,0-0.2,0-0.4-0.1l-9.4-3c-0.6-0.2-1-0.9-0.8-1.5c0.2-0.6,0.9-1,1.5-0.8l9.4,3
			c0.6,0.2,1,0.9,0.8,1.5C67.2,269,66.7,269.3,66.2,269.3z"/>
	</g>
	<g>
		<path class="st4" d="M54.4,277.2c-0.5,0-1-0.3-1.2-0.9c-0.2-0.6,0.2-1.3,0.8-1.5l10.1-2.9c0.6-0.2,1.3,0.2,1.5,0.8
			c0.2,0.6-0.2,1.3-0.8,1.5l-10.1,2.9C54.6,277.2,54.5,277.2,54.4,277.2z"/>
	</g>
	<g>
		<path class="st4" d="M64.8,286.7c-0.1,0-0.3,0-0.4-0.1c-0.6-0.2-0.9-0.9-0.7-1.5l3.2-8.6c0.2-0.6,0.9-0.9,1.5-0.7
			c0.6,0.2,0.9,0.9,0.7,1.5l-3.2,8.6C65.7,286.4,65.3,286.7,64.8,286.7z"/>
	</g>
	<g>
		<path class="st4" d="M78.2,288.5c-0.4,0-0.9-0.3-1.1-0.7l-3.8-8c-0.3-0.6,0-1.3,0.6-1.6c0.6-0.3,1.3,0,1.6,0.6l3.8,8
			c0.3,0.6,0,1.3-0.6,1.6C78.5,288.5,78.3,288.5,78.2,288.5z"/>
	</g>
	<g>
		<path class="st4" d="M89.4,277.1c-0.1,0-0.1,0-0.2,0L79,275.7c-0.7-0.1-1.1-0.7-1-1.3c0.1-0.7,0.7-1.1,1.3-1l10.3,1.3
			c0.7,0.1,1.1,0.7,1,1.3C90.5,276.6,90,277.1,89.4,277.1z"/>
	</g>
	<path class="st5" d="M141.8,239.8V134.7c0-33.8,24.7-62.1,57-67.8c-2.5-0.3-5-0.4-7.5-0.4h0c-36.4,0-66.2,29.8-66.2,66.2v101.2
		c0,23.2,16.6,42.8,38.6,47.3C150.5,272.2,141.8,257,141.8,239.8z"/>
	<path class="st6" d="M216.3,71.4c13.9,14,22.5,33.2,22.5,54.3v118.1c0,13.3-4.7,25.6-12.5,35.2c18.2-6.9,31.2-24.6,31.2-45.2V132.7
		C257.5,105.1,240.4,81.3,216.3,71.4z"/>
	<path class="st7" d="M238.8,125.8c0-21.1-8.6-40.4-22.5-54.3c-5.5-2.3-11.4-3.8-17.5-4.5c-32.3,5.6-57,33.9-57,67.8v105.1
		c0,17.1,8.7,32.3,21.9,41.4c3.1,0.6,6.4,1,9.7,1h35.8c6,0,11.7-1.1,17.1-3.1c7.8-9.7,12.5-21.9,12.5-35.2V125.8z"/>
	<path class="st8" d="M182.4,168.3c0,1.8-1.4,3.2-3.2,3.2c-1.8,0-3.2-1.4-3.2-3.2c0-1.8,1.4-3.2,3.2-3.2
		C181,165,182.4,166.5,182.4,168.3z"/>
	<path class="st8" d="M233,168.3c0,1.8-1.4,3.2-3.2,3.2c-1.8,0-3.2-1.4-3.2-3.2c0-1.8,1.4-3.2,3.2-3.2
		C231.5,165,233,166.5,233,168.3z"/>
	<path class="st8" d="M180.2,186.9c2.6-3.7,6.3-6.7,10.5-8.7c4.2-2,8.9-3.1,13.6-3.1c4.7,0,9.4,1.1,13.6,3.1c4.2,2,7.9,5,10.5,8.7
		c-3.7-2.6-7.5-4.7-11.6-6.1c-4.1-1.4-8.3-2.1-12.5-2.1c-4.2,0-8.4,0.7-12.5,2.1C187.8,182.2,183.9,184.3,180.2,186.9z"/>
	<path class="st8" d="M236.4,162.9c-0.7,0.7-1.7,1-2.7,1c-1,0-2-0.4-2.8-0.9c-0.8-0.6-1.4-1.4-1.7-2.3c-0.3-0.9-0.3-2,0.2-2.8
		c0.7,0.7,1.3,1.2,1.8,1.6c0.5,0.4,1,0.8,1.5,1.2c0.5,0.4,1,0.7,1.6,1.1C234.9,162.1,235.6,162.4,236.4,162.9z"/>
	<path class="st8" d="M171.5,164.7c0.9-0.5,1.5-0.9,2.1-1.2c0.6-0.4,1.1-0.7,1.6-1.1c0.5-0.4,1-0.7,1.5-1.2c0.5-0.4,1.1-0.9,1.8-1.6
		c0.5,0.9,0.5,1.9,0.2,2.8c-0.3,0.9-0.9,1.8-1.7,2.3c-0.8,0.6-1.8,0.9-2.8,0.9C173.2,165.8,172.2,165.5,171.5,164.7z"/>
	<g>
		<path class="st4" d="M182.7,228.1c-34.6,0-53.4-3.9-56.1-11.7c-1.9-5.5,4.9-10.4,5.2-10.6c0.5-0.4,1.2-0.2,1.6,0.3
			c0.4,0.5,0.2,1.2-0.3,1.6c-0.1,0-5.7,4.1-4.3,8c1.6,4.7,13.7,12.1,76.9,9.6c0.6,0,1.2,0.5,1.2,1.1c0,0.6-0.5,1.2-1.1,1.2
			C197.5,227.9,189.8,228.1,182.7,228.1z"/>
	</g>
	<g>
		<path class="st4" d="M213.6,227.1c-0.7,0-1.2-0.5-1.2-1.2c0-0.7,0.5-1.2,1.2-1.2c40.1,0,47.9-5.9,48.9-9.5
			c1.1-3.5-3.7-7.6-5.7-8.9c-0.6-0.4-0.7-1.1-0.3-1.7c0.4-0.6,1.1-0.7,1.7-0.3c0.3,0.2,8.4,5.7,6.6,11.6
			C262.6,223.4,245.8,227.1,213.6,227.1z"/>
	</g>
	<g>
		<path class="st4" d="M199.8,290.7c-0.6,0-1.2-0.5-1.2-1.1c-3-63.9-6.4-74.9-7.9-76.5c-3.2,3-7.6,37.5-10,69.7
			c0,0.7-0.6,1.2-1.3,1.1c-0.7,0-1.2-0.6-1.1-1.3c0-0.2,1.3-18,3.4-35.5c4.3-36.6,7.3-36.5,9-36.5c2.3,0,6.6,0.1,10.3,78.9
			C201.1,290.1,200.6,290.7,199.8,290.7C199.9,290.7,199.9,290.7,199.8,290.7z"/>
	</g>
	<g>
		<path class="st4" d="M231.8,291.2c-0.6,0-1.2-0.5-1.2-1.1c-3-64.1-6.5-75.1-7.9-76.7c-3.2,3-7.6,37.2-10,69.2
			c0,0.7-0.6,1.2-1.3,1.1c-0.7,0-1.2-0.6-1.1-1.3c0-0.2,1.3-17.9,3.4-35.3c4.2-36.3,7.3-36.3,9-36.3c2.3,0,6.6,0.1,10.3,79
			C233,290.6,232.5,291.2,231.8,291.2C231.8,291.2,231.8,291.2,231.8,291.2z"/>
	</g>
	<path class="st8" d="M220,225.9c0,2.1-2.5,3.9-5.6,3.9c-3.1,0-5.6-1.7-5.6-3.9c0-2.1,2.5-3.9,5.6-3.9
		C217.5,222,220,223.8,220,225.9z"/>
	<ellipse class="st8" cx="203.1" cy="226.5" rx="5.6" ry="3.9"/>
	<path class="st8" d="M212.7,296.9c-0.9,2-5.2,2-9.8,0c-4.5-2-7.5-5.2-6.7-7.1c0.9-2,5.2-2,9.8,0
		C210.5,291.7,213.5,294.9,212.7,296.9z"/>
	<path class="st8" d="M244.2,295.7c-0.9,2-5.2,2-9.8,0c-4.5-2-7.5-5.2-6.7-7.1c0.9-2,5.2-2,9.8,0
		C242.1,290.5,245.1,293.7,244.2,295.7z"/>
	<g>
		<path class="st4" d="M125.1,146.9c10.6-3.8,21.6-6.4,32.7-8.3c5.5-1,11.1-1.7,16.7-2.3c5.6-0.6,11.2-0.9,16.9-1
			c11.3-0.2,22.6,0.4,33.8,2.2c5.6,0.8,11.1,2.2,16.5,3.7c5.4,1.6,10.7,3.5,15.8,5.8c-5.4-1.5-10.8-3-16.3-4.1
			c-1.4-0.3-2.7-0.5-4.1-0.8c-1.4-0.2-2.7-0.5-4.1-0.7l-4.1-0.6l-4.1-0.5c-5.5-0.6-11.1-1.1-16.6-1.3c-5.6-0.2-11.1-0.3-16.7-0.1
			c-11.1,0.2-22.2,1.2-33.3,2.5C147.1,142.8,136.1,144.6,125.1,146.9z"/>
	</g>
	<g>
		<path class="st4" d="M201.4,138.2c-0.7,0-1.2-0.5-1.2-1.2V68.3c0-0.7,0.5-1.2,1.2-1.2s1.2,0.5,1.2,1.2V137
			C202.6,137.7,202,138.2,201.4,138.2z"/>
	</g>
	<g>
		<path class="st4" d="M200,123.5L200,123.5c-3.6,0-6.6-3-6.6-6.6V85.1c0-3.6,3-6.6,6.6-6.6l0,0c3.6,0,6.6,3,6.6,6.6v31.7
			C206.7,120.5,203.7,123.5,200,123.5z"/>
		<path class="st4" d="M201.5,78.7v44.6c2.9-0.7,5.1-3.3,5.1-6.4V85.1C206.7,82,204.5,79.4,201.5,78.7z"/>
		<path class="st4" d="M200,123.5L200,123.5c-3.6,0-6.6-3-6.6-6.6V85.1c0-3.6,3-6.6,6.6-6.6l0,0c3.6,0,6.6,3,6.6,6.6v31.7
			C206.7,120.5,203.7,123.5,200,123.5z"/>
	</g>
	<g>
		<path class="st5" d="M202.6,122.4L202.6,122.4c-3.6,0-6.6-3-6.6-6.6V84.1c0-3.6,3-6.6,6.6-6.6l0,0c3.6,0,6.6,3,6.6,6.6v31.7
			C209.2,119.4,206.2,122.4,202.6,122.4z"/>
		<path class="st6" d="M204.1,77.6v44.6c2.9-0.7,5.1-3.3,5.1-6.4V84.1C209.2,80.9,207,78.3,204.1,77.6z"/>
		<path class="st9" d="M202.6,122.4L202.6,122.4c-3.6,0-6.6-3-6.6-6.6V84.1c0-3.6,3-6.6,6.6-6.6l0,0c3.6,0,6.6,3,6.6,6.6v31.7
			C209.2,119.4,206.2,122.4,202.6,122.4z"/>
	</g>
	<g>
		<path class="st4" d="M234.5,109.2c-0.7,0-1.2-0.5-1.2-1.2V62.7c0-0.7,0.5-1.2,1.2-1.2s1.2,0.5,1.2,1.2V108
			C235.7,108.7,235.2,109.2,234.5,109.2z"/>
	</g>
	<g>
		<path class="st4" d="M226.1,93.5c-0.7,0-1.2-0.5-1.2-1.2v-26c0-0.7,0.5-1.2,1.2-1.2s1.2,0.5,1.2,1.2v26
			C227.3,92.9,226.7,93.5,226.1,93.5z"/>
	</g>
	<g>
		<path class="st4" d="M243,106.3c-0.7,0-1.2-0.5-1.2-1.2V76.5c0-0.7,0.5-1.2,1.2-1.2s1.2,0.5,1.2,1.2v28.7
			C244.2,105.8,243.6,106.3,243,106.3z"/>
	</g>
</g>
</svg>
