<svg xmlns="http://www.w3.org/2000/svg" width="34.191" height="23.08" viewBox="0 0 34.191 23.08">
  <path id="icon_newsletter" data-name="icon newsletter" d="M.072,25.1V6.112q0-.033.1-.626l11.177,9.562L.2,25.763A2.794,2.794,0,0,1,.072,25.1ZM1.556,4.167a1.421,1.421,0,0,1,.561-.1h30.1a1.867,1.867,0,0,1,.593.1L21.6,13.762l-1.484,1.187-2.934,2.407L14.25,14.949l-1.484-1.187Zm.033,22.882L12.832,16.267,17.184,19.8l4.352-3.528L32.78,27.049a1.583,1.583,0,0,1-.561.1H2.116a1.493,1.493,0,0,1-.528-.1Zm21.431-12L34.164,5.486a1.968,1.968,0,0,1,.1.626V25.1a2.527,2.527,0,0,1-.1.659Z" transform="translate(-0.072 -4.068)" fill="#fff"/>
</svg>
