<?xml version="1.0" encoding="utf-8"?>
<!-- Generator: Adobe Illustrator 22.1.0, SVG Export Plug-In . SVG Version: 6.00 Build 0)  -->
<svg version="1.1" id="Capa_1" xmlns="http://www.w3.org/2000/svg" xmlns:xlink="http://www.w3.org/1999/xlink" x="0px" y="0px"
	 viewBox="0 0 1524.4 427.8" style="enable-background:new 0 0 1524.4 427.8;" xml:space="preserve">
<style type="text/css">
	.st0{fill:#FFFFFF;}
</style>
<g>
	<path class="st0" d="M-473-736.9c0.3-3.1,0.6-6.1,0.9-9.2c6.8-59.5,37-103,90.1-130.5c17.8-9.2,37.1-14.1,57.1-15.8
		c30-2.5,58.6,2.8,85.6,16.1c13,6.4,24.8,14.4,35.5,24.4c-1.6-0.5-3.2-1-4.8-1.5c-1.7-0.5-3.4-1-5.1-1.5
		c-15.5-4.3-31.3-6.5-47.4-5.8c-28.3,1.2-54.2,9.8-78.1,24.9c-13,8.2-24.9,17.7-34.8,29.5c-6.8,8.1-11.8,17.1-13.5,27.7
		c-2,12.5,1.3,23.1,11.4,31.2c6.6,5.2,13.8,5.8,21.4,2.3c5.7-2.7,10.3-6.6,14-11.8c15.3-21.8,34.2-39.7,58-52
		c16.6-8.6,34.2-13.5,52.9-14.8c12.8-0.9,25.4-0.3,37.7,3.4c8.4,2.5,16,6.5,22.5,12.4c0.9,0.8,1.8,1.9,2.3,3
		c11.1,21.7,17.2,44.6,17.7,69c1,47.4-15.4,88-49.3,121.1c-24.7,24.2-54.5,38.8-88.8,43.6c-41.7,5.9-80.1-3.1-115.1-26.7
		c-0.3-0.2-0.6-0.5-1.5-1.2c4.3,1,8,1.9,11.7,2.6c33.3,6.8,65.1,2.4,95.8-11.9c16.8-7.8,32-18.1,45.3-31c9-8.7,16-18.7,18.7-31.2
		c2.7-12.5,0-23.5-10-32.1c-6.6-5.7-14-6.6-21.9-3c-5.6,2.6-10.3,6.3-14.1,11.3c-17.7,23.5-39.3,42.1-66.8,53.4
		c-14.8,6.1-30.1,9.3-46.1,10c-13.6,0.6-27-0.6-39.8-5.4c-2.8-1-5.4-2.4-8.1-3.7c-6-3-10.5-7.3-13.7-13.5
		c-10.3-19.6-16.9-40.3-18.9-62.4c-0.3-3.2-0.6-6.5-1-9.7C-473-729.5-473-733.2-473-736.9z"/>
	<path class="st0" d="M1051.4-762.3c-0.4,3.4-0.6,6.8-1.3,10.1c-2.3,10.2-4.6,20.4-7.2,30.5c-6.6,26.1-13.6,52-20.1,78.1
		c-3.3,13.1-4.9,26.4-4.6,39.9c0,0.9,0,1.7,0,3c-1,0-1.8,0-2.7,0c-14.2,0-28.5,0.2-42.7-0.1c-5.7-0.1-11.5-0.7-17.1-1.8
		c-6.8-1.3-11.7-5-13-12.4c-4.4,1.9-8.7,3.9-13.1,5.6c-19.2,7.7-39.2,11.8-59.9,13c-17.6,1-35-0.1-52-4.9
		c-14.3-4.1-27.3-10.7-37.3-21.9c-16-17.8-19-38.1-10.4-60.2c6.8-17.5,19.1-30.4,34.4-40.8c17-11.4,35.8-18.6,55.4-23.8
		c19-5.1,38.4-8.4,58-10.1c13.2-1.1,26.5-1.8,39.7-2.5c4.5-0.2,8.9,0,13.2,0c4.6-10.1,0.7-20.4-9-24.5c-6.6-2.8-13.7-3.9-20.8-4.3
		c-33.1-1.8-64.9,4.2-95.4,17.1c-3,1.3-6,2.4-9.3,3.8c-4-17.4-7.8-34.5-11.8-51.7c0.5-0.3,0.9-0.6,1.4-0.8
		c20.8-9,42.5-14.7,64.8-18.2c20.1-3.1,40.4-4.4,60.7-3.6c17.6,0.7,35,3,51.6,9.4c16.9,6.5,30.8,16.8,39.8,32.9
		c4.8,8.6,7.4,18,8,27.9c0.1,0.9,0.3,1.7,0.5,2.5C1051.4-767.5,1051.4-764.9,1051.4-762.3z M958.3-708.8c-3.7,0-7.7-0.1-11.8,0
		c-16.7,0.7-33.3,2.4-49.6,6.3c-11.7,2.8-23,6.5-33.1,13.4c-7.5,5.1-13.3,11.6-15.8,20.7c-2.7,9.7-0.2,14.2,9.5,17
		c7.4,2.1,14.9,2.4,22.5,2c18.4-0.9,35.4-5.9,51.2-15.6C947.8-675,956.7-689.8,958.3-708.8z"/>
	<path class="st0" d="M214.8-465.2c-2.2-0.5-4.5-0.9-6.7-1.5c-13.9-3.5-23.4-15.2-24.5-29.5c-0.9-11.9,0.7-23.4,7.1-33.6
		c9.4-15.1,23.4-21.3,40.9-20c6.3,0.5,12.1,2.3,17.2,6.1c7.1,5.3,9.9,12.7,10.1,21.3c0,0.6-0.8,1.7-1.3,1.7
		c-4.4,0.1-8.8,0.1-13.2,0.1c-0.3-2-0.4-3.7-0.8-5.4c-1.5-7-6.9-11.2-14.8-11.7c-10.4-0.7-18.4,3.5-23.9,12.2c-6,9.6-8,20.1-6,31.3
		c1.7,9.6,7.9,15.3,17.4,16.6c9.3,1.3,17.2-2.9,21.5-11.4c0.2-0.5,0.5-1,0.7-1.5c2.2-5.3,2.2-5.3,8-5.3c2.6,0,5.1,0,7.7,0
		c0.2,0,0.5,0.1,0.7,0.2c-1.6,15.1-14.5,28.2-29.5,30.1c-0.8,0.1-1.5,0.4-2.3,0.5C220.2-465.2,217.5-465.2,214.8-465.2z"/>
	<path class="st0" d="M488.2-666.3c0.8,10.8,1.6,21.4,2.4,32c0.5,6.7,0.9,13.4,1.5,20.1c0.1,1.7-0.4,2.3-2,2.8
		c-19.2,5.8-38.8,9.8-58.8,12.3c-20.6,2.5-41.2,3.7-61.9,3.1c-26.1-0.8-51.5-4.6-75.5-15.7c-19.3-9-35.2-22-45.5-41
		c-8.4-15.5-11.3-32.2-9.4-49.6c4.5-40.7,24.8-72.6,56.1-98c25.4-20.5,54.6-32.7,86.6-38.8c17.3-3.3,34.7-4.5,52.3-3.7
		c19.4,0.9,38.5,4,56.2,12.3c24.8,11.6,41.7,30.2,48,57.2c4.9,20.7,2.6,41.1-5.2,60.9c-1.4,3.6-3.1,7.2-4.5,10.8
		c-0.5,1.3-1.2,1.7-2.5,1.6c-0.6-0.1-1.3,0-1.9,0c-67.8,0-135.6,0-203.5,0c-1,0-2.1,0-3.1,0c-2.8,12.4,0.4,26.4,10.9,34.5
		c8.4,6.4,18.1,9.6,28.3,11.8c15.8,3.3,31.7,3,47.7,2.5c27.7-0.8,54.5-6.4,80.9-14.3C486.4-665.8,487.2-666,488.2-666.3z
		 M338.2-753.3c0.2,0.3,0.3,0.5,0.5,0.8c0.9,0,1.9,0,2.8,0c39.3,0,78.7,0,118,0c4.1,0,4.2,0,4.5-4.1c1.2-16.6-5.6-25.8-19.3-30.2
		c-12.8-4.2-26.1-4.4-39.4-3c-21.2,2.3-39.9,10.5-55.7,24.8C345.7-761.4,342-757.2,338.2-753.3z"/>
	<path class="st0" d="M142.8-820.7c-11.8,15.7-23.4,31.2-35.1,46.8c-2.5-1.2-4.9-2.4-7.3-3.6c-11.8-6.2-24.6-9.3-37.8-10.9
		c-10-1.1-19.9-1.5-29.9,0c-10.6,1.6-20.7,4.6-29,12c-2.7,2.4-4.9,5.3-5.9,8.8c-1.1,3.8-0.9,4.9,2.6,6.6c5.2,2.5,10.4,4.9,15.8,6.7
		c12.3,4.2,24.8,7.8,37.1,12.1c13,4.6,25.4,10.6,36.1,19.4c10.6,8.8,18.1,19.6,20.1,33.5c1.9,13.1-1.2,25.4-7.3,37
		c-8.4,16-21.6,27.1-37.3,35.6C49-607.9,32-602.8,14.4-599.7c-17.8,3.2-35.9,4.3-54,3.7c-25-0.9-49.5-4.4-72.8-13.8
		c-7.5-3-14.7-6.6-22.4-10.1c11.9-16.3,23.6-32.3,35.3-48.5c2.5,1.3,4.8,2.4,7.1,3.7c14.3,7.7,29.7,11.5,45.6,13.7
		c12.4,1.7,24.9,1.8,37.3,0c10.3-1.5,20.2-4.2,28.7-10.5c5.3-3.9,9.3-8.6,10.4-15.5c0.5-2.9-0.3-5.2-2.8-6.5
		c-4.2-2.3-8.3-4.9-12.8-6.4C3.5-693.5-7.3-696.5-18-700c-14.7-4.8-28.7-10.7-41.1-20.2c-9.5-7.3-17.1-16.1-20.9-27.7
		c-4.5-13.6-2.1-26.5,4.4-38.9c7.8-14.9,20-25.6,34.2-34c16.9-10,35.3-15.8,54.6-19.2c15.3-2.7,30.8-3.5,46.3-2.8
		c21.2,1,42,4.2,61.7,12.3C128.4-827.5,135.4-824.1,142.8-820.7z"/>
	<path class="st0" d="M788.3-820.6c-11.7,15.6-23.3,31.1-35.1,46.7c-2-1-3.9-1.9-5.8-2.9c-19-10-39.4-13.1-60.6-12.4
		c-11.4,0.4-22.5,2.7-32.5,8.9c-4.7,2.9-8.7,6.5-10.8,11.8c-1.7,4.3-1.3,6,2.8,7.9c5.4,2.6,10.9,4.9,16.6,6.9
		c12.7,4.3,25.6,8,38.2,12.5c13.2,4.7,25.7,11.1,36.2,20.7c9.6,8.7,16.1,19.2,17.7,32.3c1.5,12-1.2,23.4-6.5,34.1
		c-7.7,15.7-20,26.9-34.9,35.6c-16.7,9.8-34.9,15.3-53.8,18.7c-17.8,3.2-35.9,4.4-53.9,3.7c-25.9-0.9-51.2-4.6-75.3-14.7
		c-6.7-2.8-13.2-6-19.9-9.1c11.8-16.2,23.5-32.2,35.3-48.4c2.8,1.5,5.6,2.9,8.3,4.3c12.7,6.7,26.5,10.3,40.5,12.5
		c12.4,2,24.8,2.4,37.3,1c9.7-1.1,19.1-3.2,27.7-7.8c4.3-2.3,8.2-5.2,11.3-9.2c2.2-2.8,3.5-6,4.1-9.6c0.4-2.7-0.2-4.9-2.5-6.2
		c-4.8-2.6-9.5-5.4-14.5-7.2c-10.6-3.7-21.5-6.7-32.2-10.2c-14.4-4.7-28.2-10.8-40.3-20.2c-9.9-7.8-17.6-17.2-21-29.6
		c-3.4-12.3-1.1-23.9,4.4-35.1c6.9-13.9,17.6-24.2,30.4-32.6c18-11.7,37.9-18.3,58.8-21.9c19.9-3.5,39.9-3.8,60-1.9
		c22.9,2.2,44.7,8.2,65.1,19C785-822.1,786.6-821.4,788.3-820.6z"/>
	<path class="st0" d="M260.8-838c-21.3,78.6-42.5,157.2-63.8,235.8c-26.1,0-52,0-78.4,0c15.1-54.3,30.1-108.5,45.1-162.9
		c-10.2,0-19.9,0-30.1,0c1.7-6.4,3.6-12.4,4.8-18.5c0.9-4.7,3-6.6,7.9-7.7c15.2-3.5,26.6-13,35.8-25.4c4.4-6,7.9-12.6,10.3-19.7
		c0.4-1.2,0.9-1.8,2.3-1.8c21.6,0,43.2,0,64.8,0C260-838.1,260.3-838.1,260.8-838z"/>
	<path class="st0" d="M360.2-467.3c1.4-6.8,2.7-13.3,4.1-19.9c1.3-6.3,2.6-12.5,3.9-18.7c0.1-0.7,0.2-1.4,0.2-2.1
		c0.5-7.1-2.9-10.2-9.8-8.3c-8.3,2.3-12.5,8.6-14.3,16.5c-2.3,10.3-4.3,20.6-6.4,30.9c-0.1,0.5-0.3,0.9-0.5,1.5c-4.3,0-8.7,0-13.4,0
		c4.1-19.7,8.1-39.2,12.1-58.7c4.4,0,8.6,0,12.8,0c-0.4,2.3-0.8,4.5-1.4,7.3c1-0.9,1.6-1.5,2.2-2c6-5.4,12.9-7.7,21-6.5
		c5.5,0.8,9.5,3.5,11.1,9.2c2.2-1.8,4.1-3.5,6.1-5c5.8-4.4,12.3-5.4,19.3-3.9c6.5,1.4,11,6.6,10.8,13.4c-0.2,5.5-1.3,11.1-2.3,16.5
		c-1.7,9.4-3.7,18.8-5.6,28.2c-0.1,0.5-0.2,0.9-0.3,1.4c-4.5,0-8.9,0-13.5,0c1.3-6.5,2.7-12.8,4-19.1c1.4-6.6,3-13.3,4.1-19.9
		c1.4-8.6-4-12.7-12.2-9.4c-6.6,2.6-9.9,8-11.4,14.7c-2.3,10.6-4.5,21.2-6.6,31.9c-0.3,1.6-1,2.1-2.5,2
		C367.9-467.3,364.2-467.3,360.2-467.3z"/>
	<path class="st0" d="M459.1-467.3c2.2-10.7,4.4-21.1,6.5-31.5c0.6-3.1,1.4-6.2,1.7-9.4c0.6-7-2.9-10-9.7-8.2
		c-7.6,2-12,7.7-13.9,14.8c-2.7,10.5-4.6,21.2-6.8,31.8c-0.2,0.8-0.4,1.5-0.6,2.3c-4.4,0-8.7,0-13.5,0c4.1-19.7,8.1-39.1,12.1-58.7
		c4.3,0,8.5,0,12.8,0c-0.4,2.3-0.8,4.5-1.3,7.2c1.1-1,1.8-1.6,2.6-2.3c5.5-4.8,11.9-7,19.2-6.3c5.9,0.6,10.6,3,12.4,9.5
		c1.7-1.5,3.2-2.8,4.7-4c5.9-4.9,12.7-6.5,20.2-5.1c6.7,1.3,11.6,6.6,11.3,13.7c-0.2,5.5-1.3,11.1-2.3,16.5
		c-1.8,9.8-3.9,19.6-5.9,29.4c-4.5,0-8.9,0-13.5,0c1-4.8,2-9.6,3-14.3c1.7-8.2,3.6-16.4,5-24.6c1.5-8.7-4.1-12.9-12.3-9.5
		c-6.5,2.7-9.8,8-11.2,14.6c-2.3,10.6-4.5,21.2-6.6,31.9c-0.4,1.8-1,2.2-2.7,2.1C466.7-467.3,463.1-467.3,459.1-467.3z"/>
	<path class="st0" d="M133.6-492.7c-14.3,0-28.5,0-42.7,0c-1.7,6.1,0.9,14.7,8.6,15.5c3.3,0.3,6.8,0.1,10.1-0.5
		c3.3-0.6,5.7-2.9,6.9-6.1c0.7-1.9,1.8-2.2,3.6-2.2c3.5,0.1,7,0,10.8,0c-1.4,5.4-3.8,9.9-7.7,13.4c-8.8,7.8-25.4,9.1-35.3,2.8
		c-7.9-5-11-12.6-11.1-21.6c0-8.3,2.1-16.1,7-23c7.8-11,21.6-15.8,34.6-12.1c8.8,2.5,14.5,10,15.7,20.1
		C134.6-501.8,134.8-497.3,133.6-492.7z M121-502.2c-0.2-2.3-0.1-4.4-0.6-6.5c-1.3-5.3-5.6-7.9-11.8-8c-7.8-0.1-14.6,6-16.2,14.5
		C101.8-502.2,111.2-502.2,121-502.2z"/>
	<path class="st0" d="M536.6-492.7c0.2,2.5,0.1,4.7,0.5,6.8c0.9,5,3.9,8.1,9.1,8.9c5.2,0.8,10.2,0.4,14.4-3.4
		c0.7-0.6,1.5-1.4,1.7-2.2c0.9-3.3,3.2-3.5,6-3.4c2.9,0.2,5.7,0,8.9,0c-1.4,5.5-3.8,10.1-8,13.6c-6.9,5.8-15.1,7.3-23.6,6.3
		c-15-1.7-23.5-12.7-22.3-27.8c0.7-9.6,3.8-18.2,10.8-24.9c9.1-8.8,20-10.8,31.7-7.2c9.2,2.9,13.6,10.3,14.6,19.5
		c0.4,3.9,0,7.8,0.1,11.7c0,1.7-0.8,2.1-2.3,2.1c-12.7-0.1-25.4,0-38.1,0C539-492.7,538.1-492.7,536.6-492.7z M567-502.2
		c1.1-7.8-2.3-13.2-9-14.3c-3.4-0.5-6.7-0.2-9.8,1.3c-5.3,2.7-8,7.4-9.8,13C548.2-502.2,557.5-502.2,567-502.2z"/>
	<path class="st0" d="M743.6-492.7c-14.8,0-29,0-43.2,0c-1.7,6.2,0.9,14.6,8.9,15.7c3.9,0.5,7.8,0.8,11.2-1.3
		c2.2-1.3,4.2-3.3,5.5-5.4c1.1-1.8,2.1-2.4,4-2.3c3.4,0.1,6.8,0,10.5,0c-1.4,5.4-3.7,9.8-7.6,13.2c-8.9,8-25.9,9.3-35.9,2.7
		c-7.6-5.1-10.6-12.6-10.6-21.4c0-8.6,2.3-16.6,7.5-23.6c7.9-10.7,21.7-15.3,34.4-11.3c9.6,3,14.3,10.2,15.3,19.8
		C744-502.1,743.6-497.5,743.6-492.7z M730.4-502.2c0-1.6,0.1-2.9,0-4.1c-0.3-5.4-3.7-9.2-9.1-10.2c-8.9-1.7-18.8,5.6-19.3,14.4
		c8.9,0,17.7,0,26.6,0C729.1-502.1,729.6-502.2,730.4-502.2z"/>
	<path class="st0" d="M294.6-528.1c4,0.9,8.2,1.3,12,2.8c10.1,3.9,13.3,12.5,13.5,22.5c0.1,5.7-0.8,11.3-2.9,16.6
		c-5.6,14.1-19.6,22.2-34.8,20.1c-11.8-1.6-18.5-7.2-20.7-17.7c-0.7-3.4-0.9-7-0.7-10.5c0.6-9.7,4.2-18.2,11.4-24.8
		C278.6-524.9,286.1-527.6,294.6-528.1z M306.5-501.7c0-0.9,0.1-1.8,0-2.6c-0.4-5.8-3.7-10.5-8.3-11.7c-5.1-1.4-10-0.7-14.3,2.7
		c-7.5,5.9-11.6,19.2-8.6,28.2c1.3,3.8,3.5,6.9,7.6,7.9c5.4,1.4,10.5,0.5,14.8-3.3C304.2-486.1,306.1-493.6,306.5-501.7z"/>
	<path class="st0" d="M681.8-506.2c-4.5,0-8.7,0-13,0c-0.1-0.2-0.3-0.4-0.3-0.5c-0.5-8.5-8.5-12.7-17.1-8.8
		c-3.9,1.7-6.6,4.7-8.6,8.4c-3.5,6.4-4.9,13.2-3.7,20.4c0.7,4.6,3,8.2,7.7,9.5c5.6,1.5,10.9,0.8,15-3.7c1.4-1.6,2.2-3.7,3.3-5.5
		c0.4-0.6,1-1.5,1.5-1.5c4-0.1,8.1-0.1,12.5-0.1c-1.8,6.8-4.5,12.6-10.1,16.5c-9.4,6.5-19.8,7.7-30.4,3.8
		c-8.5-3.2-12.4-10.4-13.2-19c-1.1-12.2,1.8-23.2,10.8-32c8.6-8.5,23.1-11.1,34.1-6.3c7.4,3.2,11.1,9,11.7,17c0,0.4,0,0.8,0,1.2
		C682-506.8,681.9-506.6,681.8-506.2z"/>
	<path class="st0" d="M582.1-467.4c4-19.6,8.1-39,12.1-58.6c4.2,0,8.3,0,12.8,0c-0.6,3-1.1,5.9-1.6,8.8c6.2-7.7,13.8-12,24.2-10.1
		c-0.9,4-1.8,8.1-2.7,12.2c-2.8,0-5.5-0.3-8.2,0.1c-7.5,1-12.4,5.7-14.8,12.5c-2.1,5.9-3.3,12.1-4.8,18.2
		c-1.3,5.6-2.4,11.2-3.6,16.9C591.2-467.4,586.8-467.4,582.1-467.4z"/>
	<path class="st0" d="M175.9-504.4c-0.9,4.4-1.7,8.4-2.5,12.6c-11.3,0-22.6,0-34,0c0.8-4.3,1.7-8.4,2.5-12.6
		C153.3-504.4,164.5-504.4,175.9-504.4z"/>
</g>
<g>
	<path class="st0" d="M0,156.1c0.3-3.1,0.6-6.1,0.9-9.2C7.7,87.4,38,43.9,91,16.4c17.8-9.2,37.1-14.1,57.1-15.8
		c30-2.5,58.6,2.8,85.6,16.1c13,6.4,24.8,14.4,35.5,24.4c-1.6-0.5-3.2-1-4.8-1.5c-1.7-0.5-3.4-1-5.1-1.5
		c-15.5-4.3-31.3-6.5-47.4-5.8c-28.3,1.2-54.2,9.8-78.1,24.9c-13,8.2-24.9,17.7-34.8,29.5c-6.8,8.1-11.8,17.1-13.5,27.7
		c-2,12.5,1.3,23.1,11.4,31.2c6.6,5.2,13.8,5.8,21.4,2.3c5.7-2.7,10.3-6.6,14-11.8c15.3-21.8,34.2-39.7,58-52
		c16.6-8.6,34.2-13.5,52.9-14.8c12.8-0.9,25.4-0.3,37.7,3.4c8.4,2.5,16,6.5,22.5,12.4c0.9,0.8,1.8,1.9,2.3,3
		c11.1,21.7,17.2,44.6,17.7,69c1,47.4-15.4,88-49.3,121.1c-24.7,24.2-54.5,38.8-88.8,43.6c-41.7,5.9-80.1-3.1-115.1-26.7
		c-0.3-0.2-0.6-0.5-1.5-1.2c4.3,1,8,1.9,11.7,2.6c33.3,6.8,65.1,2.4,95.8-11.9c16.8-7.8,32-18.1,45.3-31c9-8.7,16-18.7,18.7-31.2
		c2.7-12.5,0-23.5-10-32.1c-6.6-5.7-14-6.6-21.9-3c-5.6,2.6-10.3,6.3-14.1,11.3c-17.7,23.5-39.3,42.1-66.8,53.4
		c-14.8,6.1-30.1,9.3-46.1,10c-13.6,0.6-27-0.6-39.8-5.4c-2.8-1-5.4-2.4-8.1-3.7c-6-3-10.5-7.3-13.7-13.5
		C9.5,219.6,2.9,198.9,1,176.8c-0.3-3.2-0.6-6.5-1-9.7C0,163.5,0,159.8,0,156.1z"/>
	<path class="st0" d="M1524.4,130.7c-0.4,3.4-0.6,6.8-1.3,10.1c-2.3,10.2-4.6,20.4-7.2,30.5c-6.6,26.1-13.6,52-20.1,78.1
		c-3.3,13.1-4.9,26.4-4.6,39.9c0,0.9,0,1.7,0,3c-1,0-1.8,0-2.7,0c-14.2,0-28.5,0.2-42.7-0.1c-5.7-0.1-11.5-0.7-17.1-1.8
		c-6.8-1.3-11.7-5-13-12.4c-4.4,1.9-8.7,3.9-13.1,5.6c-19.2,7.7-39.2,11.8-59.9,13c-17.6,1-35-0.1-52-4.9
		c-14.3-4.1-27.3-10.7-37.3-21.9c-16-17.8-19-38.1-10.4-60.2c6.8-17.5,19.1-30.4,34.4-40.8c17-11.4,35.8-18.6,55.4-23.8
		c19-5.1,38.4-8.4,58-10.1c13.2-1.1,26.5-1.8,39.7-2.5c4.5-0.2,8.9,0,13.2,0c4.6-10.1,0.7-20.4-9-24.5c-6.6-2.8-13.7-3.9-20.8-4.3
		c-33.1-1.8-64.9,4.2-95.4,17.1c-3,1.3-6,2.4-9.3,3.8c-4-17.4-7.8-34.5-11.8-51.7c0.5-0.3,0.9-0.6,1.4-0.8
		c20.8-9,42.5-14.7,64.8-18.2c20.1-3.1,40.4-4.4,60.7-3.6c17.6,0.7,35,3,51.6,9.4c16.9,6.5,30.8,16.8,39.8,32.9
		c4.8,8.6,7.4,18,8,27.9c0.1,0.9,0.3,1.7,0.5,2.5C1524.4,125.5,1524.4,128.1,1524.4,130.7z M1431.3,184.2c-3.7,0-7.7-0.1-11.8,0
		c-16.7,0.7-33.3,2.4-49.6,6.3c-11.7,2.8-23,6.5-33.1,13.4c-7.5,5.1-13.3,11.6-15.8,20.7c-2.7,9.7-0.2,14.2,9.5,17
		c7.4,2.1,14.9,2.4,22.5,2c18.4-0.9,35.4-5.9,51.2-15.6C1420.8,218,1429.7,203.2,1431.3,184.2z"/>
	<path class="st0" d="M687.8,427.8c-2.2-0.5-4.5-0.9-6.7-1.5c-13.9-3.5-23.4-15.2-24.5-29.5c-0.9-11.9,0.7-23.4,7.1-33.6
		c9.4-15.1,23.4-21.3,40.9-20c6.3,0.5,12.1,2.3,17.2,6.1c7.1,5.3,9.9,12.7,10.1,21.3c0,0.6-0.8,1.7-1.3,1.7
		c-4.4,0.1-8.8,0.1-13.2,0.1c-0.3-2-0.4-3.7-0.8-5.4c-1.5-7-6.9-11.2-14.8-11.7c-10.4-0.7-18.4,3.5-23.9,12.2c-6,9.6-8,20.1-6,31.3
		c1.7,9.6,7.9,15.3,17.4,16.6c9.3,1.3,17.2-2.9,21.5-11.4c0.2-0.5,0.5-1,0.7-1.5c2.2-5.3,2.2-5.3,8-5.3c2.6,0,5.1,0,7.7,0
		c0.2,0,0.5,0.1,0.7,0.2c-1.6,15.1-14.5,28.2-29.5,30.1c-0.8,0.1-1.5,0.4-2.3,0.5C693.2,427.8,690.5,427.8,687.8,427.8z"/>
	<path class="st0" d="M961.2,226.7c0.8,10.8,1.6,21.4,2.4,32c0.5,6.7,0.9,13.4,1.5,20.1c0.1,1.7-0.4,2.3-2,2.8
		c-19.2,5.8-38.8,9.8-58.8,12.3c-20.6,2.5-41.2,3.7-61.9,3.1c-26.1-0.8-51.5-4.6-75.5-15.7c-19.3-9-35.2-22-45.5-41
		c-8.4-15.5-11.3-32.2-9.4-49.6c4.5-40.7,24.8-72.6,56.1-98C793.7,72.2,823,60,854.9,53.9c17.3-3.3,34.7-4.5,52.3-3.7
		c19.4,0.9,38.5,4,56.2,12.3c24.8,11.6,41.7,30.2,48,57.2c4.9,20.7,2.6,41.1-5.2,60.9c-1.4,3.6-3.1,7.2-4.5,10.8
		c-0.5,1.3-1.2,1.7-2.5,1.6c-0.6-0.1-1.3,0-1.9,0c-67.8,0-135.6,0-203.5,0c-1,0-2.1,0-3.1,0c-2.8,12.4,0.4,26.4,10.9,34.5
		c8.4,6.4,18.1,9.6,28.3,11.8c15.8,3.3,31.7,3,47.7,2.5c27.7-0.8,54.5-6.4,80.9-14.3C959.4,227.2,960.2,227,961.2,226.7z
		 M811.2,139.7c0.2,0.3,0.3,0.5,0.5,0.8c0.9,0,1.9,0,2.8,0c39.3,0,78.7,0,118,0c4.1,0,4.2,0,4.5-4.1c1.2-16.6-5.6-25.8-19.3-30.2
		c-12.8-4.2-26.1-4.4-39.4-3c-21.2,2.3-39.9,10.5-55.7,24.8C818.7,131.6,815,135.8,811.2,139.7z"/>
	<path class="st0" d="M615.8,72.3c-11.8,15.7-23.4,31.2-35.1,46.8c-2.5-1.2-4.9-2.4-7.3-3.6c-11.8-6.2-24.6-9.3-37.8-10.9
		c-10-1.1-19.9-1.5-29.9,0c-10.6,1.6-20.7,4.6-29,12c-2.7,2.4-4.9,5.3-5.9,8.8c-1.1,3.8-0.9,4.9,2.6,6.6c5.2,2.5,10.4,4.9,15.8,6.7
		c12.3,4.2,24.8,7.8,37.1,12.1c13,4.6,25.4,10.6,36.1,19.4c10.6,8.8,18.1,19.6,20.1,33.5c1.9,13.1-1.2,25.4-7.3,37
		c-8.4,16-21.6,27.1-37.3,35.6c-15.8,8.6-32.8,13.7-50.4,16.8c-17.8,3.2-35.9,4.3-54,3.7c-25-0.9-49.5-4.4-72.8-13.8
		c-7.5-3-14.7-6.6-22.4-10.1c11.9-16.3,23.6-32.3,35.3-48.5c2.5,1.3,4.8,2.4,7.1,3.7c14.3,7.7,29.7,11.5,45.6,13.7
		c12.4,1.7,24.9,1.8,37.3,0c10.3-1.5,20.2-4.2,28.7-10.5c5.3-3.9,9.3-8.6,10.4-15.5c0.5-2.9-0.3-5.2-2.8-6.5
		c-4.2-2.3-8.3-4.9-12.8-6.4c-10.6-3.7-21.5-6.7-32.2-10.2c-14.7-4.8-28.7-10.7-41.1-20.2c-9.5-7.3-17.1-16.1-20.9-27.7
		c-4.5-13.6-2.1-26.5,4.4-38.9c7.8-14.9,20-25.6,34.2-34c16.9-10,35.3-15.8,54.6-19.2c15.3-2.7,30.8-3.5,46.3-2.8
		c21.2,1,42,4.2,61.7,12.3C601.4,65.5,608.4,68.9,615.8,72.3z"/>
	<path class="st0" d="M1261.3,72.4c-11.7,15.6-23.3,31.1-35.1,46.7c-2-1-3.9-1.9-5.8-2.9c-19-10-39.4-13.1-60.6-12.4
		c-11.4,0.4-22.5,2.7-32.5,8.9c-4.7,2.9-8.7,6.5-10.8,11.8c-1.7,4.3-1.3,6,2.8,7.9c5.4,2.6,10.9,4.9,16.6,6.9
		c12.7,4.3,25.6,8,38.2,12.5c13.2,4.7,25.7,11.1,36.2,20.7c9.6,8.7,16.1,19.2,17.7,32.3c1.5,12-1.2,23.4-6.5,34.1
		c-7.7,15.7-20,26.9-34.9,35.6c-16.7,9.8-34.9,15.3-53.8,18.7c-17.8,3.2-35.9,4.4-53.9,3.7c-25.9-0.9-51.2-4.6-75.3-14.7
		c-6.7-2.8-13.2-6-19.9-9.1c11.8-16.2,23.5-32.2,35.3-48.4c2.8,1.5,5.6,2.9,8.3,4.3c12.7,6.7,26.5,10.3,40.5,12.5
		c12.4,2,24.8,2.4,37.3,1c9.7-1.1,19.1-3.2,27.7-7.8c4.3-2.3,8.2-5.2,11.3-9.2c2.2-2.8,3.5-6,4.1-9.6c0.4-2.7-0.2-4.9-2.5-6.2
		c-4.8-2.6-9.5-5.4-14.5-7.2c-10.6-3.7-21.5-6.7-32.2-10.2c-14.4-4.7-28.2-10.8-40.3-20.2c-9.9-7.8-17.6-17.2-21-29.6
		c-3.4-12.3-1.1-23.9,4.4-35.1c6.9-13.9,17.6-24.2,30.4-32.6c18-11.7,37.9-18.3,58.8-21.9c19.9-3.5,39.9-3.8,60-1.9
		c22.9,2.2,44.7,8.2,65.1,19C1258,70.9,1259.6,71.6,1261.3,72.4z"/>
	<path class="st0" d="M733.8,55c-21.3,78.6-42.5,157.2-63.8,235.8c-26.1,0-52,0-78.4,0c15.1-54.3,30.1-108.5,45.1-162.9
		c-10.2,0-19.9,0-30.1,0c1.7-6.4,3.6-12.4,4.8-18.5c0.9-4.7,3-6.6,7.9-7.7c15.2-3.5,26.6-13,35.8-25.4c4.4-6,7.9-12.6,10.3-19.7
		c0.4-1.2,0.9-1.8,2.3-1.8c21.6,0,43.2,0,64.8,0C733,54.9,733.3,54.9,733.8,55z"/>
	<path class="st0" d="M833.2,425.7c1.4-6.8,2.7-13.3,4.1-19.9c1.3-6.3,2.6-12.5,3.9-18.7c0.1-0.7,0.2-1.4,0.2-2.1
		c0.5-7.1-2.9-10.2-9.8-8.3c-8.3,2.3-12.5,8.6-14.3,16.5c-2.3,10.3-4.3,20.6-6.4,30.9c-0.1,0.5-0.3,0.9-0.5,1.5c-4.3,0-8.7,0-13.4,0
		c4.1-19.7,8.1-39.2,12.1-58.7c4.4,0,8.6,0,12.8,0c-0.4,2.3-0.8,4.5-1.4,7.3c1-0.9,1.6-1.5,2.2-2c6-5.4,12.9-7.7,21-6.5
		c5.5,0.8,9.5,3.5,11.1,9.2c2.2-1.8,4.1-3.5,6.1-5c5.8-4.4,12.3-5.4,19.3-3.9c6.5,1.4,11,6.6,10.8,13.4c-0.2,5.5-1.3,11.1-2.3,16.5
		c-1.7,9.4-3.7,18.8-5.6,28.2c-0.1,0.5-0.2,0.9-0.3,1.4c-4.5,0-8.9,0-13.5,0c1.3-6.5,2.7-12.8,4-19.1c1.4-6.6,3-13.3,4.1-19.9
		c1.4-8.6-4-12.7-12.2-9.4c-6.6,2.6-9.9,8-11.4,14.7c-2.3,10.6-4.5,21.2-6.6,31.9c-0.3,1.6-1,2.1-2.5,2
		C840.9,425.7,837.2,425.7,833.2,425.7z"/>
	<path class="st0" d="M932.1,425.7c2.2-10.7,4.4-21.1,6.5-31.5c0.6-3.1,1.4-6.2,1.7-9.4c0.6-7-2.9-10-9.7-8.2
		c-7.6,2-12,7.7-13.9,14.8c-2.7,10.5-4.6,21.2-6.8,31.8c-0.2,0.8-0.4,1.5-0.6,2.3c-4.4,0-8.7,0-13.5,0c4.1-19.7,8.1-39.1,12.1-58.7
		c4.3,0,8.5,0,12.8,0c-0.4,2.3-0.8,4.5-1.3,7.2c1.1-1,1.8-1.6,2.6-2.3c5.5-4.8,11.9-7,19.2-6.3c5.9,0.6,10.6,3,12.4,9.5
		c1.7-1.5,3.2-2.8,4.7-4c5.9-4.9,12.7-6.5,20.2-5.1c6.7,1.3,11.6,6.6,11.3,13.7c-0.2,5.5-1.3,11.1-2.3,16.5
		c-1.8,9.8-3.9,19.6-5.9,29.4c-4.5,0-8.9,0-13.5,0c1-4.8,2-9.6,3-14.3c1.7-8.2,3.6-16.4,5-24.6c1.5-8.7-4.1-12.9-12.3-9.5
		c-6.5,2.7-9.8,8-11.2,14.6c-2.3,10.6-4.5,21.2-6.6,31.9c-0.4,1.8-1,2.2-2.7,2.1C939.7,425.7,936.1,425.7,932.1,425.7z"/>
	<path class="st0" d="M606.6,400.3c-14.3,0-28.5,0-42.7,0c-1.7,6.1,0.9,14.7,8.6,15.5c3.3,0.3,6.8,0.1,10.1-0.5
		c3.3-0.6,5.7-2.9,6.9-6.1c0.7-1.9,1.8-2.2,3.6-2.2c3.5,0.1,7,0,10.8,0c-1.4,5.4-3.8,9.9-7.7,13.4c-8.8,7.8-25.4,9.1-35.3,2.8
		c-7.9-5-11-12.6-11.1-21.6c0-8.3,2.1-16.1,7-23c7.8-11,21.6-15.8,34.6-12.1c8.8,2.5,14.5,10,15.7,20.1
		C607.6,391.2,607.8,395.7,606.6,400.3z M594,390.8c-0.2-2.3-0.1-4.4-0.6-6.5c-1.3-5.3-5.6-7.9-11.8-8c-7.8-0.1-14.6,6-16.2,14.5
		C574.8,390.8,584.2,390.8,594,390.8z"/>
	<path class="st0" d="M1009.6,400.3c0.2,2.5,0.1,4.7,0.5,6.8c0.9,5,3.9,8.1,9.1,8.9c5.2,0.8,10.2,0.4,14.4-3.4
		c0.7-0.6,1.5-1.4,1.7-2.2c0.9-3.3,3.2-3.5,6-3.4c2.9,0.2,5.7,0,8.9,0c-1.4,5.5-3.8,10.1-8,13.6c-6.9,5.8-15.1,7.3-23.6,6.3
		c-15-1.7-23.5-12.7-22.3-27.8c0.7-9.6,3.8-18.2,10.8-24.9c9.1-8.8,20-10.8,31.7-7.2c9.2,2.9,13.6,10.3,14.6,19.5
		c0.4,3.9,0,7.8,0.1,11.7c0,1.7-0.8,2.1-2.3,2.1c-12.7-0.1-25.4,0-38.1,0C1012,400.3,1011.1,400.3,1009.6,400.3z M1040,390.8
		c1.1-7.8-2.3-13.2-9-14.3c-3.4-0.5-6.7-0.2-9.8,1.3c-5.3,2.7-8,7.4-9.8,13C1021.2,390.8,1030.5,390.8,1040,390.8z"/>
	<path class="st0" d="M1216.6,400.3c-14.8,0-29,0-43.2,0c-1.7,6.2,0.9,14.6,8.9,15.7c3.9,0.5,7.8,0.8,11.2-1.3
		c2.2-1.3,4.2-3.3,5.5-5.4c1.1-1.8,2.1-2.4,4-2.3c3.4,0.1,6.8,0,10.5,0c-1.4,5.4-3.7,9.8-7.6,13.2c-8.9,8-25.9,9.3-35.9,2.7
		c-7.6-5.1-10.6-12.6-10.6-21.4c0-8.6,2.3-16.6,7.5-23.6c7.9-10.7,21.7-15.3,34.4-11.3c9.6,3,14.3,10.2,15.3,19.8
		C1217,390.9,1216.6,395.5,1216.6,400.3z M1203.4,390.8c0-1.6,0.1-2.9,0-4.1c-0.3-5.4-3.7-9.2-9.1-10.2c-8.9-1.7-18.8,5.6-19.3,14.4
		c8.9,0,17.7,0,26.6,0C1202.1,390.9,1202.6,390.8,1203.4,390.8z"/>
	<path class="st0" d="M767.6,364.9c4,0.9,8.2,1.3,12,2.8c10.1,3.9,13.3,12.5,13.5,22.5c0.1,5.7-0.8,11.3-2.9,16.6
		c-5.6,14.1-19.6,22.2-34.8,20.1c-11.8-1.6-18.5-7.2-20.7-17.7c-0.7-3.4-0.9-7-0.7-10.5c0.6-9.7,4.2-18.2,11.4-24.8
		C751.6,368.1,759.1,365.4,767.6,364.9z M779.5,391.3c0-0.9,0.1-1.8,0-2.6c-0.4-5.8-3.7-10.5-8.3-11.7c-5.1-1.4-10-0.7-14.3,2.7
		c-7.5,5.9-11.6,19.2-8.6,28.2c1.3,3.8,3.5,6.9,7.6,7.9c5.4,1.4,10.5,0.5,14.8-3.3C777.2,406.9,779.1,399.4,779.5,391.3z"/>
	<path class="st0" d="M1154.8,386.8c-4.5,0-8.7,0-13,0c-0.1-0.2-0.3-0.4-0.3-0.5c-0.5-8.5-8.5-12.7-17.1-8.8
		c-3.9,1.7-6.6,4.7-8.6,8.4c-3.5,6.4-4.9,13.2-3.7,20.4c0.7,4.6,3,8.2,7.7,9.5c5.6,1.5,10.9,0.8,15-3.7c1.4-1.6,2.2-3.7,3.3-5.5
		c0.4-0.6,1-1.5,1.5-1.5c4-0.1,8.1-0.1,12.5-0.1c-1.8,6.8-4.5,12.6-10.1,16.5c-9.4,6.5-19.8,7.7-30.4,3.8
		c-8.5-3.2-12.4-10.4-13.2-19c-1.1-12.2,1.8-23.2,10.8-32c8.6-8.5,23.1-11.1,34.1-6.3c7.4,3.2,11.1,9,11.7,17c0,0.4,0,0.8,0,1.2
		C1155,386.2,1154.9,386.4,1154.8,386.8z"/>
	<path class="st0" d="M1055.1,425.6c4-19.6,8.1-39,12.1-58.6c4.2,0,8.3,0,12.8,0c-0.6,3-1.1,5.9-1.6,8.8c6.2-7.7,13.8-12,24.2-10.1
		c-0.9,4-1.8,8.1-2.7,12.2c-2.8,0-5.5-0.3-8.2,0.1c-7.5,1-12.4,5.7-14.8,12.5c-2.1,5.9-3.3,12.1-4.8,18.2
		c-1.3,5.6-2.4,11.2-3.6,16.9C1064.2,425.6,1059.8,425.6,1055.1,425.6z"/>
	<path class="st0" d="M648.9,388.6c-0.9,4.4-1.7,8.4-2.5,12.6c-11.3,0-22.6,0-34,0c0.8-4.3,1.7-8.4,2.5-12.6
		C626.3,388.6,637.5,388.6,648.9,388.6z"/>
</g>
</svg>
