<?xml version="1.0" encoding="utf-8"?>
<!-- Generator: Adobe Illustrator 22.1.0, SVG Export Plug-In . SVG Version: 6.00 Build 0)  -->
<svg version="1.1" id="Capa_1" xmlns="http://www.w3.org/2000/svg" xmlns:xlink="http://www.w3.org/1999/xlink" x="0px" y="0px"
	 viewBox="0 0 350 350" style="enable-background:new 0 0 350 350;" xml:space="preserve">
<style type="text/css">
	.st0{fill:#838383;}
	.st1{fill:#50B5ED;}
	.st2{fill:#B5E5FF;}
	.st3{fill:url(#SVGID_1_);}
	.st4{fill:url(#SVGID_2_);}
	.st5{fill:url(#SVGID_3_);}
	.st6{fill:url(#SVGID_4_);}
	.st7{fill:url(#SVGID_5_);}
	.st8{fill:url(#SVGID_6_);}
	.st9{fill:url(#SVGID_7_);}
	.st10{fill:url(#SVGID_8_);}
	.st11{fill:url(#SVGID_9_);}
	.st12{fill:url(#SVGID_10_);}
	.st13{fill:url(#SVGID_11_);}
	.st14{fill:url(#SVGID_12_);}
	.st15{fill:url(#SVGID_13_);}
	.st16{fill:url(#SVGID_14_);}
	.st17{fill:#5E5E5E;}
	.st18{fill:#E0F1FC;}
	.st19{fill:none;stroke:#5E5E5E;stroke-linecap:round;stroke-linejoin:round;stroke-miterlimit:10;}
	.st20{fill:#8F8F8F;}
	.st21{fill:#AED948;}
	.st22{opacity:0.5;fill:#FFFFFF;enable-background:new    ;}
	.st23{fill:#D9D9D9;}
	.st24{fill:#97BD3F;}
	.st25{fill:#3899CF;}
</style>
<g>
	<ellipse class="st0" cx="177.9" cy="179.6" rx="170.1" ry="170.1"/>
	<ellipse class="st1" cx="172.1" cy="170.4" rx="170.1" ry="170.1"/>
	<g>
		<g>
			<g>
				<path class="st2" d="M258.5,77H90.4c-1.5,0-2.7,1.2-2.7,2.7v16.7h173.6V79.7C261.2,78.2,260,77,258.5,77z"/>
				<g>
					<g>
						
							<linearGradient id="SVGID_1_" gradientUnits="userSpaceOnUse" x1="92.7543" y1="116.7457" x2="92.7543" y2="173.6801" gradientTransform="matrix(1 0 0 -1 0 352)">
							<stop  offset="0" style="stop-color:#FFFFFF"/>
							<stop  offset="1" style="stop-color:#BBDBF0"/>
						</linearGradient>
						<path class="st3" d="M96.7,205.7L85,202.1c4.8-15.5,2.8-38.7,2.8-39L100,162C100.1,163,102.3,187.9,96.7,205.7z"/>
					</g>
					<g>
						
							<linearGradient id="SVGID_2_" gradientUnits="userSpaceOnUse" x1="106.25" y1="116.7463" x2="106.25" y2="173.6801" gradientTransform="matrix(1 0 0 -1 0 352)">
							<stop  offset="0" style="stop-color:#FFFFFF"/>
							<stop  offset="1" style="stop-color:#BBDBF0"/>
						</linearGradient>
						<path class="st4" d="M111.4,226.4L99.2,225c1.6-13.6,1.6-22.6,1.7-49.3c0-4,0-8.4,0.1-13.2l12.3,0.1c0,4.8,0,9.2-0.1,13.2
							C113.1,203,113.1,212.1,111.4,226.4z"/>
					</g>
					<g>
						
							<linearGradient id="SVGID_3_" gradientUnits="userSpaceOnUse" x1="121.1426" y1="116.7459" x2="121.1426" y2="173.6799" gradientTransform="matrix(1 0 0 -1 0 352)">
							<stop  offset="0" style="stop-color:#FFFFFF"/>
							<stop  offset="1" style="stop-color:#BBDBF0"/>
						</linearGradient>
						<path class="st5" d="M116.4,236c-3.9-18.2-2.1-71.4-2.1-73.7l12.3,0.4c0,0.5-1.8,53.9,1.8,70.7L116.4,236z"/>
					</g>
					<g>
						
							<linearGradient id="SVGID_4_" gradientUnits="userSpaceOnUse" x1="134.113" y1="116.7466" x2="134.113" y2="173.6799" gradientTransform="matrix(1 0 0 -1 0 352)">
							<stop  offset="0" style="stop-color:#FFFFFF"/>
							<stop  offset="1" style="stop-color:#BBDBF0"/>
						</linearGradient>
						<path class="st6" d="M139.9,221l-12.2-1c1.4-16,0-56.7,0-57.1l12.3-0.4C139.9,164,141.3,204.2,139.9,221z"/>
					</g>
					<g>
						
							<linearGradient id="SVGID_5_" gradientUnits="userSpaceOnUse" x1="148.7386" y1="116.7463" x2="148.7386" y2="173.6803" gradientTransform="matrix(1 0 0 -1 0 352)">
							<stop  offset="0" style="stop-color:#FFFFFF"/>
							<stop  offset="1" style="stop-color:#BBDBF0"/>
						</linearGradient>
						<path class="st7" d="M144.8,235.1c-5.1-19.3-3.9-70.6-3.9-72.7l12.3,0.3c0,0.5-1.2,51.7,3.5,69.3L144.8,235.1z"/>
					</g>
					<g>
						
							<linearGradient id="SVGID_6_" gradientUnits="userSpaceOnUse" x1="160.8045" y1="116.7458" x2="160.8045" y2="173.6799" gradientTransform="matrix(1 0 0 -1 0 352)">
							<stop  offset="0" style="stop-color:#FFFFFF"/>
							<stop  offset="1" style="stop-color:#BBDBF0"/>
						</linearGradient>
						<path class="st8" d="M155.5,226.6c-2.4-17.2-1.4-62.3-1.3-64.2l12.3,0.3c0,0.5-1.1,46,1.2,62.2L155.5,226.6z"/>
					</g>
					<g>
						
							<linearGradient id="SVGID_7_" gradientUnits="userSpaceOnUse" x1="172.3609" y1="116.7462" x2="172.3609" y2="173.6802" gradientTransform="matrix(1 0 0 -1 0 352)">
							<stop  offset="0" style="stop-color:#FFFFFF"/>
							<stop  offset="1" style="stop-color:#BBDBF0"/>
						</linearGradient>
						<path class="st9" d="M176.5,235.1l-11.8-3.2c3.6-13.3,3.2-54.5,2.8-69.2l12.3-0.4C179.8,164.6,181.3,217.4,176.5,235.1z"/>
					</g>
					<g>
						
							<linearGradient id="SVGID_8_" gradientUnits="userSpaceOnUse" x1="187.0652" y1="116.746" x2="187.0652" y2="173.6798" gradientTransform="matrix(1 0 0 -1 0 352)">
							<stop  offset="0" style="stop-color:#FFFFFF"/>
							<stop  offset="1" style="stop-color:#BBDBF0"/>
						</linearGradient>
						<path class="st10" d="M181.9,228.2c-3-18.5-1.3-64-1.2-65.9l12.3,0.5c0,0.5-1.7,46.2,1,63.5L181.9,228.2z"/>
					</g>
					<g>
						
							<linearGradient id="SVGID_9_" gradientUnits="userSpaceOnUse" x1="200.15" y1="116.7462" x2="200.15" y2="173.6802" gradientTransform="matrix(1 0 0 -1 0 352)">
							<stop  offset="0" style="stop-color:#FFFFFF"/>
							<stop  offset="1" style="stop-color:#BBDBF0"/>
						</linearGradient>
						<rect x="194" y="162.5" class="st11" width="12.3" height="52.4"/>
					</g>
					<g>
						
							<linearGradient id="SVGID_10_" gradientUnits="userSpaceOnUse" x1="212.888" y1="116.7461" x2="212.888" y2="173.6798" gradientTransform="matrix(1 0 0 -1 0 352)">
							<stop  offset="0" style="stop-color:#FFFFFF"/>
							<stop  offset="1" style="stop-color:#BBDBF0"/>
						</linearGradient>
						<path class="st12" d="M217.5,228.7l-11.9-2.9c3.8-16,1.8-62.5,1.8-63l12.3-0.5C219.7,164.3,221.7,211,217.5,228.7z"/>
					</g>
					<g>
						
							<linearGradient id="SVGID_11_" gradientUnits="userSpaceOnUse" x1="229.3262" y1="116.7466" x2="229.3262" y2="173.6801" gradientTransform="matrix(1 0 0 -1 0 352)">
							<stop  offset="0" style="stop-color:#FFFFFF"/>
							<stop  offset="1" style="stop-color:#BBDBF0"/>
						</linearGradient>
						<path class="st13" d="M227.3,237.5c-8.5-17.1-6.9-69.2-6.7-75.1l12.3,0.4c-0.5,15.2-0.6,57.1,5.4,69.3L227.3,237.5z"/>
					</g>
					<g>
						
							<linearGradient id="SVGID_12_" gradientUnits="userSpaceOnUse" x1="241.75" y1="116.7465" x2="241.75" y2="173.6803" gradientTransform="matrix(1 0 0 -1 0 352)">
							<stop  offset="0" style="stop-color:#FFFFFF"/>
							<stop  offset="1" style="stop-color:#BBDBF0"/>
						</linearGradient>
						<path class="st14" d="M237.5,226.9c-3.6-18.3-3.6-62.5-3.6-64.3h12.3c0,0.4,0,44.9,3.4,62L237.5,226.9z"/>
					</g>
					<g>
						
							<linearGradient id="SVGID_13_" gradientUnits="userSpaceOnUse" x1="255.15" y1="116.7454" x2="255.15" y2="173.68" gradientTransform="matrix(1 0 0 -1 0 352)">
							<stop  offset="0" style="stop-color:#FFFFFF"/>
							<stop  offset="1" style="stop-color:#BBDBF0"/>
						</linearGradient>
						<path class="st15" d="M251.3,208.3c-4-14.4-4.1-44.5-4.1-45.7h12.3c0,0.3,0,29.6,3.6,42.4L251.3,208.3z"/>
					</g>
				</g>
				
					<linearGradient id="SVGID_14_" gradientUnits="userSpaceOnUse" x1="174.55" y1="196.498" x2="174.55" y2="180.7151" gradientTransform="matrix(1 0 0 -1 0 352)">
					<stop  offset="0" style="stop-color:#FFFFFF"/>
					<stop  offset="1" style="stop-color:#BBDBF0"/>
				</linearGradient>
				<path class="st16" d="M154.6,90.7c-1.5,0-3.2-1.1-3.7-2.5l-2.3-5.9c-0.6-1.4-2.2-2.5-3.7-2.5H102c-1.5,0-3.2,1.1-3.7,2.5
					L96,88.2c-0.6,1.4-2.2,2.5-3.7,2.5h-1.8c-1.5,0-2.7,1.2-2.7,2.7v76.8c0,1.5,1.2,2.7,2.7,2.7h168.1c1.5,0,2.7-1.2,2.7-2.7V93.5
					c0-1.5-1.2-2.7-2.7-2.7h-104V90.7z"/>
				<g>
					<path class="st17" d="M142.8,86.7c-0.2,0.2-0.4,0.2-0.6,0l0,0c-0.2-0.2-0.2-0.4,0-0.6l3.2-3.2c0.2-0.2,0.4-0.2,0.6,0l0,0
						c0.2,0.2,0.2,0.4,0,0.6L142.8,86.7z"/>
					<path class="st17" d="M142.2,83.5c-0.2-0.2-0.2-0.4,0-0.6l0,0c0.2-0.2,0.4-0.2,0.6,0l3.2,3.2c0.2,0.2,0.2,0.4,0,0.6l0,0
						c-0.2,0.2-0.4,0.2-0.6,0L142.2,83.5z"/>
				</g>
				<g>
					<path class="st17" d="M252.9,86.7c-0.2,0.2-0.4,0.2-0.6,0l0,0c-0.2-0.2-0.2-0.4,0-0.6l3.2-3.2c0.2-0.2,0.4-0.2,0.6,0l0,0
						c0.2,0.2,0.2,0.4,0,0.6L252.9,86.7z"/>
					<path class="st17" d="M252.4,83.5c-0.2-0.2-0.2-0.4,0-0.6l0,0c0.2-0.2,0.4-0.2,0.6,0l3.2,3.2c0.2,0.2,0.2,0.4,0,0.6l0,0
						c-0.2,0.2-0.4,0.2-0.6,0L252.4,83.5z"/>
				</g>
				<path class="st18" d="M245.4,107.8c0,0.5-0.4,0.9-0.9,0.9h-140c-0.5,0-0.9-0.4-0.9-0.9v-9.3c0-0.5,0.4-0.9,0.9-0.9h140
					c0.5,0,0.9,0.4,0.9,0.9V107.8z"/>
				<rect x="245.7" y="83.1" class="st19" width="3.3" height="3.3"/>
				<line class="st19" x1="242.1" y1="86.5" x2="238.8" y2="86.5"/>
				<g>
					<path class="st20" d="M256.8,100.2c0,0.3-0.3,0.6-0.6,0.6h-6.5c-0.3,0-0.6-0.3-0.6-0.6l0,0c0-0.3,0.3-0.6,0.6-0.6h6.5
						C256.5,99.6,256.8,99.9,256.8,100.2L256.8,100.2z"/>
					<path class="st20" d="M256.8,103.1c0,0.3-0.3,0.6-0.6,0.6h-6.5c-0.3,0-0.6-0.3-0.6-0.6l0,0c0-0.3,0.3-0.6,0.6-0.6h6.5
						C256.5,102.6,256.8,102.8,256.8,103.1L256.8,103.1z"/>
					<path class="st20" d="M256.8,106.1c0,0.3-0.3,0.6-0.6,0.6h-6.5c-0.3,0-0.6-0.3-0.6-0.6l0,0c0-0.3,0.3-0.6,0.6-0.6h6.5
						C256.5,105.5,256.8,105.8,256.8,106.1L256.8,106.1z"/>
				</g>
				<path class="st20" d="M101.4,102c-0.2-0.2-0.5-0.2-0.6,0l-0.4,0.5c-0.2-2-1.8-3.5-3.8-3.5c-2.1,0-3.9,1.7-3.9,3.9
					c0,2.1,1.7,3.9,3.9,3.9c0.2,0,0.4-0.2,0.4-0.4c0-0.2-0.2-0.4-0.4-0.4c-1.6,0-3-1.3-3-3c0-1.6,1.3-3,3-3c1.5,0,2.8,1.2,2.9,2.7
					l-0.5-0.4c-0.2-0.2-0.5-0.2-0.6,0c-0.2,0.2-0.2,0.5,0,0.6l1.3,1.1c0.1,0.1,0.2,0.1,0.3,0.1l0,0c0.1,0,0.2-0.1,0.3-0.1l1.1-1.3
					C101.6,102.5,101.6,102.2,101.4,102z"/>
				<g>
					<path class="st17" d="M151.8,127.1c0-2.4-2-4.4-4.4-4.4c-2.4,0-4.4,2-4.4,4.4c0,2.4,2,4.4,4.4,4.4
						C149.9,131.5,151.8,129.5,151.8,127.1z"/>
					<path class="st17" d="M204.5,127.1c0-2.4-2-4.4-4.4-4.4c-2.4,0-4.4,2-4.4,4.4c0,2.4,2,4.4,4.4,4.4
						C202.6,131.5,204.5,129.5,204.5,127.1z"/>
					<path class="st21" d="M148.8,115.8c-0.5-1.6-2.9-1.3-4.4-0.4c-1.6,1-2.9,3.1-2.1,3.9C143.2,120.3,149.4,118,148.8,115.8z"/>
					<path class="st21" d="M198.9,115.5c0.5-1.6,2.9-1.3,4.4-0.4c1.6,1,2.9,3.1,2.1,3.9C204.5,120,198.2,117.7,198.9,115.5z"/>
					<path class="st17" d="M177.8,141.1c0,2.1-1.2,3.8-2.7,3.8c-1.5,0-2.7-1.7-2.7-3.8c0-2.1,1.2-3.8,2.7-3.8
						C176.6,137.4,177.8,139.1,177.8,141.1z"/>
				</g>
			</g>
			<g>
				<path class="st22" d="M259.5,253.3c-0.2,1-1.1,1.7-2,1.7H89.8c-1,0-1.9-0.8-2-1.7l-14.2-82c-0.2-1.3,0.5-2.4,1.6-2.4H272
					c1.1,0,1.9,1.1,1.6,2.4L259.5,253.3z"/>
				<path class="st23" d="M272.1,168.9H75.2c-1.1,0-1.9,1.1-1.6,2.4l2.5,14.7h195l2.5-14.7C273.9,170,273.2,168.9,272.1,168.9z"/>
				<path class="st21" d="M277.4,175.1c0,1.1-0.9,2-2,2H72.7c-1.1,0-2-0.9-2-2V154c0-1.1,0.9-2,2-2h202.7c1.1,0,2,0.9,2,2V175.1z"/>
				<g>
					<path class="st24" d="M79.3,172.8c0,0.9-0.8,1.7-1.7,1.7l0,0c-0.9,0-1.7-0.8-1.7-1.7v-16.6c0-0.9,0.8-1.7,1.7-1.7l0,0
						c0.9,0,1.7,0.8,1.7,1.7V172.8z"/>
					<path class="st24" d="M90.6,172.8c0,0.9-0.8,1.7-1.7,1.7l0,0c-0.9,0-1.7-0.8-1.7-1.7v-16.6c0-0.9,0.8-1.7,1.7-1.7l0,0
						c0.9,0,1.7,0.8,1.7,1.7V172.8z"/>
					<path class="st24" d="M102,172.8c0,0.9-0.8,1.7-1.7,1.7l0,0c-0.9,0-1.7-0.8-1.7-1.7v-16.6c0-0.9,0.8-1.7,1.7-1.7l0,0
						c0.9,0,1.7,0.8,1.7,1.7V172.8z"/>
					<path class="st24" d="M113.3,172.8c0,0.9-0.8,1.7-1.7,1.7l0,0c-0.9,0-1.7-0.8-1.7-1.7v-16.6c0-0.9,0.8-1.7,1.7-1.7l0,0
						c0.9,0,1.7,0.8,1.7,1.7V172.8z"/>
					<path class="st24" d="M124.7,172.8c0,0.9-0.8,1.7-1.7,1.7l0,0c-0.9,0-1.7-0.8-1.7-1.7v-16.6c0-0.9,0.8-1.7,1.7-1.7l0,0
						c0.9,0,1.7,0.8,1.7,1.7V172.8z"/>
					<path class="st24" d="M136,172.8c0,0.9-0.8,1.7-1.7,1.7l0,0c-0.9,0-1.7-0.8-1.7-1.7v-16.6c0-0.9,0.8-1.7,1.7-1.7l0,0
						c0.9,0,1.7,0.8,1.7,1.7V172.8z"/>
					<path class="st24" d="M147.4,172.8c0,0.9-0.8,1.7-1.7,1.7l0,0c-0.9,0-1.7-0.8-1.7-1.7v-16.6c0-0.9,0.8-1.7,1.7-1.7l0,0
						c0.9,0,1.7,0.8,1.7,1.7V172.8z"/>
					<path class="st24" d="M158.7,172.8c0,0.9-0.8,1.7-1.7,1.7l0,0c-0.9,0-1.7-0.8-1.7-1.7v-16.6c0-0.9,0.8-1.7,1.7-1.7l0,0
						c0.9,0,1.7,0.8,1.7,1.7V172.8z"/>
					<path class="st24" d="M170.1,172.8c0,0.9-0.8,1.7-1.7,1.7l0,0c-0.9,0-1.7-0.8-1.7-1.7v-16.6c0-0.9,0.8-1.7,1.7-1.7l0,0
						c0.9,0,1.7,0.8,1.7,1.7V172.8z"/>
					<path class="st24" d="M181.4,172.8c0,0.9-0.8,1.7-1.7,1.7l0,0c-0.9,0-1.7-0.8-1.7-1.7v-16.6c0-0.9,0.8-1.7,1.7-1.7l0,0
						c0.9,0,1.7,0.8,1.7,1.7V172.8z"/>
					<path class="st24" d="M192.8,172.8c0,0.9-0.8,1.7-1.7,1.7l0,0c-0.9,0-1.7-0.8-1.7-1.7v-16.6c0-0.9,0.8-1.7,1.7-1.7l0,0
						c0.9,0,1.7,0.8,1.7,1.7V172.8z"/>
					<path class="st24" d="M204.1,172.8c0,0.9-0.8,1.7-1.7,1.7l0,0c-0.9,0-1.7-0.8-1.7-1.7v-16.6c0-0.9,0.8-1.7,1.7-1.7l0,0
						c0.9,0,1.7,0.8,1.7,1.7V172.8z"/>
					<path class="st24" d="M215.5,172.8c0,0.9-0.8,1.7-1.7,1.7l0,0c-0.9,0-1.7-0.8-1.7-1.7v-16.6c0-0.9,0.8-1.7,1.7-1.7l0,0
						c0.9,0,1.7,0.8,1.7,1.7V172.8z"/>
					<path class="st24" d="M226.8,172.8c0,0.9-0.8,1.7-1.7,1.7l0,0c-0.9,0-1.7-0.8-1.7-1.7v-16.6c0-0.9,0.8-1.7,1.7-1.7l0,0
						c0.9,0,1.7,0.8,1.7,1.7V172.8z"/>
					<path class="st24" d="M238.2,172.8c0,0.9-0.8,1.7-1.7,1.7l0,0c-0.9,0-1.7-0.8-1.7-1.7v-16.6c0-0.9,0.8-1.7,1.7-1.7l0,0
						c0.9,0,1.7,0.8,1.7,1.7V172.8z"/>
					<path class="st24" d="M249.5,172.8c0,0.9-0.8,1.7-1.7,1.7l0,0c-0.9,0-1.7-0.8-1.7-1.7v-16.6c0-0.9,0.8-1.7,1.7-1.7l0,0
						c0.9,0,1.7,0.8,1.7,1.7V172.8z"/>
					<path class="st24" d="M260.9,172.8c0,0.9-0.8,1.7-1.7,1.7l0,0c-0.9,0-1.7-0.8-1.7-1.7v-16.6c0-0.9,0.8-1.7,1.7-1.7l0,0
						c0.9,0,1.7,0.8,1.7,1.7V172.8z"/>
					<path class="st24" d="M272.2,172.8c0,0.9-0.8,1.7-1.7,1.7l0,0c-0.9,0-1.7-0.8-1.7-1.7v-16.6c0-0.9,0.8-1.7,1.7-1.7l0,0
						c0.9,0,1.7,0.8,1.7,1.7V172.8z"/>
				</g>
			</g>
		</g>
		<rect x="62.6" y="255" class="st25" width="222.9" height="5.5"/>
	</g>
</g>
</svg>
