<?xml version="1.0" encoding="utf-8"?>
<!-- Generator: Adobe Illustrator 22.1.0, SVG Export Plug-In . SVG Version: 6.00 Build 0)  -->
<svg version="1.1" id="Capa_1" xmlns="http://www.w3.org/2000/svg" xmlns:xlink="http://www.w3.org/1999/xlink" x="0px" y="0px"
	 viewBox="0 0 350 350" style="enable-background:new 0 0 350 350;" xml:space="preserve">
<style type="text/css">
	.st0{fill:#838383;}
	.st1{fill:#4EC3EB;}
	.st2{fill:#312C2B;}
	.st3{fill:#BA3D19;}
	.st4{fill:url(#SVGID_1_);}
	.st5{fill:url(#SVGID_2_);}
	.st6{fill:#E96A13;}
	.st7{fill:#D85412;}
</style>
<g>
	<ellipse class="st0" cx="177.9" cy="179.6" rx="170.1" ry="170.1"/>
	<ellipse class="st1" cx="172.1" cy="170.4" rx="170.1" ry="170.1"/>
	<g>
		<g>
			<g>
				<path d="M268.9,261.2c0,0,0.2,1.8,0.1,3.6c-0.2,2.4-2.6,2.3-2.6,2.3h-188c0,0-2.3,0-2.8-0.6c-1-1.2-0.4-5.3-0.4-5.3
					c-0.1,0.9,1,2,3.3,2.1h187.1C267.2,263.2,268.9,262.2,268.9,261.2L268.9,261.2z"/>
				<path class="st2" d="M268.8,260.7c0.1,0.2,0.1,0.3,0.1,0.5c-0.1,1-1.8,2-3.2,2H78.5c-2.3-0.1-3.4-1.2-3.3-2.1
					c0-0.1,0.1-0.3,0.1-0.4c0.6-0.9,18.8-26.2,18.8-26.2c2.3-2.3,7.7-2.5,9.4-2.5h136.9c1.7,0,7.6,0.1,9.4,2.5
					C250,234.5,268.2,259.6,268.8,260.7z"/>
			</g>
			<g>
				<path class="st3" d="M243,243.3c0.1,4.8-31.5,16.1-70.3,16.1s-70-11.2-70.3-16.1c-0.1-2,1.4-3.9,4.3-5.7h0.1
					c-1,3.5-1.5,5.4-1.5,5.4s18.1,13.8,67.1,13.8s66.5-13.8,66.5-13.8s-0.6-2.1-1.7-6h0.2C240.9,239,242.9,241.1,243,243.3z"/>
				
					<linearGradient id="SVGID_1_" gradientUnits="userSpaceOnUse" x1="135.8" y1="231.2874" x2="208.1" y2="231.2874" gradientTransform="matrix(1 0 0 -1 0 352)">
					<stop  offset="0" style="stop-color:#FFFFFF"/>
					<stop  offset="0.6347" style="stop-color:#FDFDFD"/>
					<stop  offset="0.8631" style="stop-color:#F6F7F8"/>
					<stop  offset="1" style="stop-color:#EDEEF0"/>
				</linearGradient>
				<path class="st4" d="M208.1,134.2H208c0,0-13.3,4.5-36.2,4.1c-21.3-0.3-35.9-4.1-35.9-4.1h-0.1c3-10.5,5.9-20.8,8.6-30.3
					l0.4,0.1c0,0,12.2,2.4,27.5,2.1c14.6-0.3,26.8-3,26.8-3h0.1C202,112.9,205,123.4,208.1,134.2z"/>
				
					<linearGradient id="SVGID_2_" gradientUnits="userSpaceOnUse" x1="114.9" y1="160.55" x2="228.9" y2="160.55" gradientTransform="matrix(1 0 0 -1 0 352)">
					<stop  offset="0" style="stop-color:#FFFFFF"/>
					<stop  offset="0.6347" style="stop-color:#FDFDFD"/>
					<stop  offset="0.8631" style="stop-color:#F6F7F8"/>
					<stop  offset="1" style="stop-color:#EDEEF0"/>
				</linearGradient>
				<path class="st5" d="M228.9,207.7l-0.2,0.1c0,0-22.2,8.3-59.3,8.3c-35.3,0-54.2-7.1-54.2-7.1l-0.3-0.1
					c3.4-12.1,7.4-26.5,11.6-41.5l0.3,0.1c0,0,19,4.1,44.8,4.1s45.6-4.7,45.6-4.7l0.2-0.1C221.6,181.6,225.6,195.7,228.9,207.7z"/>
				<path class="st6" d="M199.2,103.1h-0.1c0,0-12.1,2.7-26.8,3c-15.3,0.3-27.5-2.1-27.5-2.1l-0.4-0.1c8.1-28.2,14.4-49.9,15-50.2
					c0,0,4.6-0.5,12.9-1c5.3-0.3,12.1,1,12.1,1C185.1,54.2,191.1,75,199.2,103.1z"/>
				<path class="st6" d="M217.4,166.8l-0.2,0.1c0,0-19.9,4.7-45.6,4.7c-25.8,0-44.8-4.1-44.8-4.1l-0.3-0.1
					c3.1-10.9,6.2-22.2,9.4-33.2h0.1c0,0,14.5,3.9,35.9,4.1c22.8,0.3,36.2-4.1,36.2-4.1h0.1C211.2,145,214.3,156.1,217.4,166.8z"/>
				<path class="st6" d="M237.2,237.1c1.1,3.8,1.7,6,1.7,6s-17.5,13.8-66.5,13.8s-67.1-13.8-67.1-13.8s0.5-1.9,1.5-5.4
					c1.6-5.8,4.5-16.1,8-28.8l0.3,0.1c0,0,19,7.1,54.2,7.1c37.1,0,59.3-8.3,59.3-8.3l0.2-0.1C232.6,220.6,235.5,231,237.2,237.1z"/>
				<path class="st7" d="M184.5,53.7c0,0.9-5.6,1.7-12.5,1.7s-12.5-0.7-12.5-1.7c0-0.9,5.6-1.7,12.5-1.7
					C178.9,52.1,184.5,52.8,184.5,53.7z"/>
			</g>
		</g>
		<g>
			<path d="M156.9,190.6c0-1.8-1.5-3.2-3.2-3.2c-1.8,0-3.2,1.5-3.2,3.2s1.5,3.2,3.2,3.2C155.5,193.8,156.9,192.4,156.9,190.6z"/>
			<path d="M195.7,190.6c0-1.8-1.5-3.2-3.2-3.2c-1.8,0-3.2,1.5-3.2,3.2s1.5,3.2,3.2,3.2C194.3,193.8,195.7,192.4,195.7,190.6z"/>
			<path d="M166.3,201.3c2.1,0.7,4.2,1.1,6.4,1.1s4.3-0.4,6.4-1.1s4-1.8,5.9-3.1c-1.3,1.9-3.2,3.4-5.3,4.4c-2.1,1-4.5,1.6-6.9,1.6
				s-4.8-0.6-6.9-1.6c-2.1-1-4-2.5-5.3-4.4C162.3,199.5,164.3,200.6,166.3,201.3z"/>
			<path class="st6" d="M191.2,179.7c0.5-0.5,1.3-0.7,2-0.7c0.7,0,1.5,0.3,2.1,0.7c0.6,0.4,1,1,1.3,1.7c0.2,0.7,0.2,1.5-0.1,2.1
				c-0.5-0.5-1-0.9-1.3-1.2c-0.4-0.3-0.7-0.6-1.1-0.9s-0.7-0.5-1.2-0.8C192.3,180.3,191.8,180.1,191.2,179.7z"/>
			<path class="st6" d="M154.2,178.4c-0.7,0.4-1.1,0.7-1.6,0.9c-0.4,0.3-0.8,0.5-1.2,0.8c-0.4,0.3-0.7,0.5-1.1,0.9
				c-0.4,0.3-0.8,0.7-1.3,1.2c-0.4-0.7-0.4-1.4-0.1-2.1c0.2-0.7,0.7-1.3,1.3-1.7c0.6-0.4,1.3-0.7,2.1-0.7
				C152.9,177.5,153.7,177.8,154.2,178.4z"/>
		</g>
	</g>
</g>
</svg>
