<?xml version="1.0" encoding="utf-8"?>
<!-- Generator: Adobe Illustrator 22.1.0, SVG Export Plug-In . SVG Version: 6.00 Build 0)  -->
<svg version="1.1" id="Capa_1" xmlns="http://www.w3.org/2000/svg" xmlns:xlink="http://www.w3.org/1999/xlink" x="0px" y="0px"
	 viewBox="0 0 350 350" style="enable-background:new 0 0 350 350;" xml:space="preserve">
<style type="text/css">
	.st0{fill:#838383;}
	.st1{fill:#A2DBF1;}
	.st2{fill:#1C1C1B;}
	.st3{fill:#B4B4B4;}
	.st4{fill:#3C3C3A;}
	.st5{fill:#707070;}
	.st6{fill:#FFFFFF;}
	.st7{fill:none;stroke:#325975;stroke-width:3.3;stroke-linecap:round;stroke-linejoin:round;stroke-miterlimit:10;}
	.st8{fill:#F29BB4;}
	.st9{fill:#EF82A2;}
	.st10{fill:none;stroke:#325975;stroke-width:2.75;stroke-linecap:round;stroke-linejoin:round;stroke-miterlimit:10;}
</style>
<g>
	<ellipse class="st0" cx="177.9" cy="179.6" rx="170.1" ry="170.1"/>
	<ellipse class="st1" cx="172.1" cy="170.4" rx="170.1" ry="170.1"/>
	<g>
		<g>
			<g>
				<g>
					<g>
						<path class="st2" d="M90.2,166.2c-4.4,1.5-6.5,1.2-8.4-3.1c-1.3-2.7-2.2-5.4-4.1-7.9c-4.4-6-7.9-6-14.5-5.3
							c-6.5,0.6-14.7-0.7-15.8-8.2c-0.7-5.2-0.7-10-3.1-15.1c-1.2-2.6-5-0.3-3.8,2.2c2.6,5.6,1.3,11.5,3.3,17.1
							c2.2,6,8.7,7.6,14.3,8.2c3.5,0.4,8.2-1.5,11.6-0.4c4.2,1.3,6.3,7.1,7.8,10.7c2.9,6.5,6.9,8.5,13.9,6.1
							C94,169.5,92.8,165.3,90.2,166.2L90.2,166.2z"/>
					</g>
				</g>
				<g>
					<g>
						<g>
							<path class="st2" d="M45.9,120.9c-1.3,1.6-2.8,2.7-4.6,3.5c-2,1.1-0.2,4.1,1.8,3c2.4-1.2,4.2-2.7,5.9-4.8
								c0.5-0.7,0.1-1.9-0.6-2.5C47.4,119.8,46.6,120.2,45.9,120.9L45.9,120.9z"/>
						</g>
					</g>
					<g>
						<g>
							<path class="st2" d="M40,116.6c0,3.5,0.5,7.1,0.5,10.6c0,2.2,3.5,2.2,3.5,0c0-3.5-0.5-7.1-0.5-10.6
								C43.5,114.3,40,114.3,40,116.6L40,116.6z"/>
						</g>
					</g>
					<g>
						<g>
							<path class="st2" d="M34.4,120c2.2,2.8,4.5,5.6,7.6,7.5c1.9,1.2,3.7-1.8,1.8-3c-2.8-1.7-4.8-4.4-6.8-6.9
								C35.5,115.7,32.9,118.3,34.4,120L34.4,120z"/>
						</g>
					</g>
					<g>
						<g>
							<path class="st2" d="M31.5,125c3.1,3,7.1,4,11.2,2.7c2.1-0.6,1.3-4.1-1-3.4c-3,0.9-5.4,0.3-7.8-1.8
								C32.4,120.9,29.9,123.5,31.5,125L31.5,125z"/>
						</g>
					</g>
				</g>
			</g>
			<g>
				<g>
					<g>
						<path class="st2" d="M261.2,176.7c0.2-5.8,2.1-7.2,7.6-7.6c3.3-0.3,6.9,0,10.1-0.9c5.3-1.6,4.5-7.9,7.1-11.9
							c3.5-5.4,10.8-4.7,16.2-6.5c6-2,8.3-6.6,8.8-12.7c0.2-2.9-4.3-2.8-4.4,0c-0.5,8.8-6.9,8.7-13.8,10.3
							c-6.1,1.4-10,4.6-12.2,10.6c-0.7,1.9-0.9,5-2.7,6.1c-2.7,1.5-8.1,0.5-11.1,1c-7.1,0.9-9.5,5-9.7,11.9
							C256.7,179.6,261.1,179.6,261.2,176.7L261.2,176.7z"/>
					</g>
				</g>
				<g>
					<g>
						<g>
							<path class="st2" d="M300.8,132c1.5,3.4,4,5.9,7.4,7.4c0.9,0.3,1.9-0.4,2.1-1.3c0.3-1-0.3-1.8-1.3-2.1
								c-2.1-0.9-4-2.8-4.9-4.9c-0.3-0.9-1.2-1.5-2.1-1.3C301.2,130.1,300.4,131.2,300.8,132L300.8,132z"/>
						</g>
					</g>
					<g>
						<g>
							<path class="st2" d="M305.8,127.7c0,2.8,0,5.6,0,8.3c0,2.2,3.5,2.2,3.5,0c0-2.8,0-5.6,0-8.3
								C309.3,125.4,305.8,125.4,305.8,127.7L305.8,127.7z"/>
						</g>
					</g>
					<g>
						<g>
							<path class="st2" d="M311.3,128.3c-1,2.9-2.8,5.1-5.1,7.1c-1.7,1.4,0.7,4,2.5,2.5c2.9-2.4,4.8-5.1,6-8.5
								C315.5,127.1,312.1,126.2,311.3,128.3L311.3,128.3z"/>
						</g>
					</g>
					<g>
						<g>
							<path class="st2" d="M315.5,131.8c-1.4,2.2-3.7,3.7-6.2,4.8c-2,0.9-1.2,4.3,1,3.4c3.3-1.4,6.3-3.3,8.3-6.4
								C319.7,131.6,316.7,129.9,315.5,131.8L315.5,131.8z"/>
						</g>
					</g>
				</g>
			</g>
		</g>
		<g>
			<g>
				<g>
					<path class="st3" d="M281.1,237.3c0,2.9-21.9,3.7-24.3,3.7H93c-2.4,0-24.3-0.9-24.3-3.7l20-29.9c0-2.9,1.9-5.3,4.3-5.3h163.8
						c2.4,0,4.3,2.4,4.3,5.3L281.1,237.3z"/>
					<g>
						<g>
							<polygon class="st4" points="141.2,230.6 99.2,230.6 106.5,212.7 144.6,212.7 							"/>
							<polygon class="st4" points="208.6,230.6 250.7,230.6 243.3,212.7 205.2,212.7 							"/>
							<polygon class="st4" points="255.4,230.6 270.2,230.6 258,212.7 246.9,212.7 							"/>
							<polygon class="st4" points="94.5,230.6 79.6,230.6 91.8,212.7 102.9,212.7 							"/>
							<polygon class="st4" points="204.9,230.6 144.9,230.6 148.3,212.7 201.5,212.7 							"/>
						</g>
						<g>
							<rect x="83.2" y="216" class="st3" width="183.2" height="2.8"/>
							<rect x="81.3" y="222.6" class="st3" width="187.2" height="2.8"/>
						</g>
					</g>
				</g>
				<g>
					<path class="st4" d="M282.2,244.2c0,2.4-0.5,4.3-2.9,4.3H70.5c-2.4,0-2.9-1.9-2.9-4.3v-3.7c0-2.4,0.5-4.3,2.9-4.3h208.9
						c2.4,0,2.9,1.9,2.9,4.3v3.7H282.2z"/>
					<path class="st5" d="M214,242.4c0,1.3-1,2.2-2.2,2.2h-73.8c-1.3,0-2.2-1-2.2-2.2l0,0c0-1.3,1-2.2,2.2-2.2h73.8
						C213,240.3,214,241.2,214,242.4L214,242.4z"/>
				</g>
			</g>
			<g>
				<path class="st4" d="M263.3,203.3c0,2.4-1.9,4.3-4.3,4.3H90.8c-2.4,0-4.3-1.9-4.3-4.3V93.6c0-2.4,1.9-4.3,4.3-4.3h168.1
					c2.4,0,4.3,1.9,4.3,4.3v109.7H263.3z"/>
				<g>
					<g>
						<path class="st6" d="M174.9,95.4c2.5,0,2.5-3.7,0-3.7S172.4,95.4,174.9,95.4L174.9,95.4z"/>
					</g>
				</g>
				<g>
					<path class="st6" d="M250.9,196.4c0,2-1.6,3.6-3.6,3.6H102.7c-2,0-3.6-1.6-3.6-3.6V102c0-2,1.6-3.6,3.6-3.6h144.6
						c2,0,3.6,1.6,3.6,3.6V196.4z"/>
					<g>
						<g>
							<g>
								<line class="st7" x1="152.8" y1="136.6" x2="140.2" y2="149.2"/>
								<line class="st7" x1="152.8" y1="149.2" x2="140.2" y2="136.6"/>
							</g>
							<g>
								<line class="st7" x1="209.6" y1="136.6" x2="197" y2="149.2"/>
								<line class="st7" x1="209.6" y1="149.2" x2="197" y2="136.6"/>
							</g>
						</g>
						<g>
							<g>
								<path class="st8" d="M204,164.4v12.4c0,2.5-2,4.5-4.5,4.5H197c-2.5,0-4.5-2-4.5-4.5v-12.4"/>
								<g>
									<polygon class="st9" points="200.3,165.1 198.3,179.6 196.3,165.1 									"/>
								</g>
							</g>
							<line class="st10" x1="137.1" y1="164.4" x2="212.7" y2="164.4"/>
						</g>
					</g>
				</g>
			</g>
		</g>
	</g>
</g>
</svg>
