<?xml version="1.0" encoding="utf-8"?>
<!-- Generator: Adobe Illustrator 22.1.0, SVG Export Plug-In . SVG Version: 6.00 Build 0)  -->
<svg version="1.1" id="Capa_1" xmlns="http://www.w3.org/2000/svg" xmlns:xlink="http://www.w3.org/1999/xlink" x="0px" y="0px"
	 viewBox="0 0 58 58" style="enable-background:new 0 0 58 58;" xml:space="preserve">
<style type="text/css">
	.st0{fill:#004B96;}
	.st1{fill:#ECF0F1;}
</style>
<g>
	<g>
		<path class="st0" d="M20.4,45.5l-8.7,4.7c-0.5,0.3-1,0.6-1.4,1c5,4.3,11.6,6.8,18.7,6.8s13.5-2.5,18.6-6.7c-0.5-0.4-1-0.7-1.5-1
			l-9.3-4.6c-1.2-0.6-2-1.8-2-3.2v-3.6c0.3-0.3,0.6-0.7,0.9-1.1c1.3-1.8,2.2-3.7,2.9-5.8c1.2-0.4,2.1-1.5,2.1-2.8v-3.9
			c0-0.9-0.4-1.6-1-2.2v-5.6c0,0,1.2-8.7-10.7-8.7s-10.7,8.7-10.7,8.7v5.6c-0.6,0.5-1,1.3-1,2.2v3.9c0,1,0.5,1.9,1.3,2.4
			c1,4.2,3.5,7.3,3.5,7.3v3.5C22.2,43.7,21.5,44.9,20.4,45.5z"/>
		<g>
			<path class="st1" d="M29.5,0C13.5-0.3,0.3,12.5,0,28.5c-0.2,9.1,3.9,17.2,10.3,22.7c0.4-0.4,0.9-0.7,1.4-1l8.7-4.7
				c1.1-0.6,1.8-1.8,1.8-3.1v-3.5c0,0-2.5-3-3.5-7.3c-0.8-0.5-1.3-1.4-1.3-2.4v-3.9c0-0.9,0.4-1.6,1-2.2v-5.6c0,0-1.2-8.7,10.7-8.7
				s10.7,8.7,10.7,8.7v5.6c0.6,0.5,1,1.3,1,2.2v3.9c0,1.3-0.9,2.4-2.1,2.8c-0.7,2.1-1.6,4-2.9,5.8c-0.3,0.4-0.6,0.8-0.9,1.1v3.6
				c0,1.3,0.8,2.6,2,3.2l9.3,4.6c0.6,0.3,1.1,0.6,1.5,1c6.2-5.2,10.3-13,10.4-21.8C58.3,13.5,45.5,0.3,29.5,0z"/>
		</g>
	</g>
</g>
</svg>
